<svg version="1.1" id="Layer_1" xmlns="http://www.w3.org/2000/svg" xmlns:xlink="http://www.w3.org/1999/xlink" x="0px" y="0px"
	 width="100%" viewBox="0 0 628 258" enable-background="new 0 0 628 258" xml:space="preserve">
<path fill="#010001" opacity="1.000000" stroke="none" 
	d="
M389.000000,259.000000 
	C259.369751,259.000000 130.239517,259.000000 1.054636,259.000000 
	C1.054636,173.060699 1.054636,87.121368 1.054636,1.091012 
	C210.213593,1.091012 419.427216,1.091012 628.820435,1.091012 
	C628.820435,86.999702 628.820435,172.999817 628.820435,259.000000 
	C549.121338,259.000000 469.310669,259.000000 389.000000,259.000000 
M310.988373,171.581665 
	C311.325867,171.741821 311.663330,171.901962 311.957611,172.006424 
	C311.957611,172.006424 311.909851,172.058456 311.576569,172.799637 
	C313.178986,176.603729 314.781372,180.407822 316.327484,184.982071 
	C313.625092,197.245789 310.922699,209.509506 308.220337,221.773224 
	C308.696381,222.061676 309.172424,222.350143 309.648468,222.638596 
	C326.459991,207.931396 345.552399,197.487152 367.449219,191.292679 
	C368.162445,191.010437 368.875671,190.728195 370.075989,190.444946 
	C370.404694,190.401245 370.705627,190.285446 371.427124,190.247437 
	C372.157990,189.995117 372.888855,189.742798 374.088196,189.504562 
	C374.405914,189.469589 374.696564,189.361664 375.483276,189.330688 
	C376.529602,189.050766 377.575928,188.770859 379.226776,188.509048 
	C379.811737,188.366623 380.396698,188.224197 381.464478,188.267105 
	C382.284241,188.069260 383.103973,187.871414 384.758362,187.709732 
	C390.173553,187.453491 395.588776,187.197266 401.652100,187.339905 
	C412.829315,189.875641 424.006531,192.411377 435.649780,195.052841 
	C424.966736,187.719391 413.133209,185.890305 400.311188,184.665848 
	C398.183746,184.570160 396.056274,184.474472 393.319214,184.099457 
	C391.325562,184.212112 389.331940,184.324768 386.576477,184.379822 
	C385.054749,184.570328 383.533020,184.760834 381.448975,184.751846 
	C380.095428,185.011246 378.741852,185.270645 376.774628,185.520844 
	C376.184235,185.676773 375.593872,185.832687 374.568085,185.821884 
	C373.848572,186.063904 373.129028,186.305939 371.789276,186.539352 
	C371.192383,186.695526 370.595459,186.851685 369.566864,186.842804 
	C368.859497,187.093933 368.152130,187.345062 366.943207,187.598633 
	C366.632568,187.715851 366.321930,187.833069 365.571014,187.804810 
	C364.865967,188.074417 364.160889,188.344025 362.697723,188.676254 
	C360.508789,189.384933 358.319885,190.093628 355.564697,190.736877 
	C354.902832,191.068802 354.240936,191.400726 352.874847,191.848938 
	C340.460388,197.987778 328.045929,204.126617 315.036774,210.559525 
	C317.023956,202.466599 319.056519,194.188950 321.547852,185.416397 
	C321.691956,185.243607 321.836029,185.070831 321.948120,184.961151 
	C321.948120,184.961151 321.885559,184.928223 322.631714,184.927246 
	C328.680695,182.652283 334.729675,180.377319 340.995911,178.020645 
	C339.402710,177.367584 338.010071,176.796738 337.263733,176.490814 
	C342.178864,171.225357 346.976532,166.085724 352.271484,160.562347 
	C352.898285,159.491638 353.525116,158.420944 354.580200,157.082886 
	C354.377045,156.499130 354.173889,155.915375 353.274200,155.281570 
	C352.155334,155.578110 351.036469,155.874634 349.738342,155.597504 
	C349.477936,155.061447 349.217499,154.525391 349.676392,153.869827 
	C354.703217,150.972977 361.190460,150.177414 364.434265,143.543930 
	C370.192902,136.359924 375.951569,129.175919 381.710236,121.991905 
	C381.523010,121.547485 381.335785,121.103058 381.148560,120.658630 
	C377.091583,121.680511 372.974731,122.514114 368.994934,123.778847 
	C365.247925,124.969620 361.645355,126.614883 358.233826,127.424911 
	C363.148804,124.299446 368.063812,121.173973 373.778107,118.223213 
	C378.581146,118.602013 383.416962,118.747200 388.179474,119.415001 
	C395.121338,120.388405 402.459137,120.725052 406.814850,127.682281 
	C406.951202,127.900101 407.668915,127.753960 408.894836,127.818558 
	C407.309814,123.110390 405.280548,119.322662 400.529846,118.200981 
	C395.711945,117.063431 390.730042,116.633476 385.872375,115.637863 
	C385.106354,115.480873 384.617523,113.971756 384.811615,113.098976 
	C387.479980,112.265373 390.787476,112.156693 392.702393,110.468475 
	C399.735901,104.267624 406.307037,97.542313 413.554413,90.726311 
	C414.085144,89.934036 414.615875,89.141769 415.535706,88.212791 
	C415.707703,87.850830 415.879669,87.488876 416.051666,87.126915 
	C415.701569,87.083984 415.351471,87.041046 414.173676,86.840996 
	C410.785767,86.890488 407.397858,86.939980 404.019348,86.267021 
	C405.665863,85.460579 407.312408,84.654137 409.699463,83.857872 
	C410.422760,83.711647 411.146057,83.565422 412.428925,83.513115 
	C412.941620,83.299324 413.454346,83.085533 414.619537,82.818962 
	C415.038666,82.700897 415.457794,82.582840 416.470673,82.528847 
	C417.174164,82.189499 417.877686,81.850151 419.185883,81.249718 
	C421.080566,79.475204 422.975250,77.700691 425.481445,75.633652 
	C427.716278,72.753677 429.951141,69.873703 432.625580,66.803116 
	C432.783936,66.151466 432.942261,65.499817 433.100616,64.848160 
	C432.726624,65.036667 432.352600,65.225182 431.251740,65.610680 
	C430.623016,66.006569 429.994263,66.402458 428.713531,66.814590 
	C427.207397,67.165512 425.701263,67.516441 423.424896,68.046822 
	C426.721497,65.245506 429.273041,63.077301 432.440399,60.622810 
	C441.274750,51.954681 444.397766,41.100750 444.944855,29.175688 
	C435.272034,38.160213 423.272644,41.270687 410.669891,45.238083 
	C411.827332,42.799732 412.585571,41.202374 413.343811,39.605019 
	C413.039581,39.182457 412.735352,38.759899 412.431122,38.337341 
	C406.604431,40.961040 400.346222,42.932243 395.085297,46.411419 
	C390.745544,49.281395 387.586273,53.936348 383.282135,58.054947 
	C382.429596,59.785770 381.577087,61.516594 380.228638,63.648201 
	C379.983429,64.433853 379.738190,65.219513 379.150177,66.592163 
	C379.050232,67.258270 378.950287,67.924377 378.175201,68.471687 
	C377.560822,66.746239 376.946442,65.020782 376.332001,63.295349 
	C369.135040,65.173752 358.436615,74.064758 352.326599,83.128548 
	C349.139221,88.195930 345.951874,93.263306 342.280457,98.718262 
	C342.085785,99.478775 341.891113,100.239288 341.389679,101.771881 
	C341.334412,102.870583 341.279144,103.969276 340.848816,105.744469 
	C339.046021,111.105141 340.397736,117.410492 335.472412,122.009918 
	C335.472412,116.618073 335.472412,111.226219 335.472412,105.834373 
	C335.146057,105.683701 334.819702,105.533035 334.493347,105.382362 
	C331.613831,110.902817 328.734314,116.423264 325.345520,122.376953 
	C323.563965,125.681480 321.782410,128.986008 319.384216,132.500000 
	C315.731323,135.636307 311.879272,138.574081 308.490570,141.973709 
	C305.927734,144.544785 304.266205,144.711975 301.575317,142.043137 
	C298.455017,138.948380 294.682404,136.511292 290.958191,133.135925 
	C285.091583,122.617157 279.225006,112.098389 272.938324,100.826431 
	C273.474548,108.236382 273.943451,114.715919 274.412354,121.195465 
	C273.722595,121.267982 273.032867,121.340508 272.343109,121.413033 
	C271.488373,117.979843 270.633606,114.546661 269.805695,110.394615 
	C269.679871,109.934799 269.554047,109.474976 269.600555,108.302246 
	C269.341461,106.896194 269.082367,105.490135 268.906433,103.375793 
	C268.416687,101.876808 267.926971,100.377823 267.288055,98.162949 
	C264.456177,93.788857 261.624329,89.414757 258.590698,84.406212 
	C251.940903,75.233368 244.231674,67.339561 233.110687,62.352741 
	C232.937180,64.981369 232.832397,66.568848 232.652603,69.292969 
	C230.530762,65.305878 228.945114,62.326340 227.267654,58.793880 
	C226.826752,58.200802 226.385864,57.607727 225.811813,56.444744 
	C225.212051,55.958176 224.612305,55.471603 223.866425,54.339245 
	C222.239838,52.901829 220.613266,51.464413 218.535934,49.522701 
	C212.641739,43.074490 204.816193,40.877384 195.889664,38.814819 
	C197.265854,41.877605 198.247986,44.063389 199.444351,46.725948 
	C187.622421,40.303535 174.274567,38.769112 164.976242,28.940897 
	C165.353699,37.737156 166.826599,45.902252 171.979340,53.747040 
	C175.299286,57.228500 178.619247,60.709965 182.268051,64.712280 
	C183.189178,65.502495 184.110306,66.292709 184.282196,67.313042 
	C182.058365,66.727005 179.834534,66.140976 176.775711,65.334900 
	C183.073059,76.192596 190.373688,83.899940 202.883453,84.847809 
	C202.870865,85.366440 202.858276,85.885078 202.011841,86.637070 
	C199.707901,86.589523 197.403976,86.541985 194.922119,86.145218 
	C194.505295,86.389450 194.088470,86.633682 193.923767,87.491920 
	C194.648682,88.311646 195.373596,89.131371 196.068054,90.399078 
	C196.068054,90.399078 196.101196,90.846886 196.223053,91.440994 
	C196.788269,91.971893 197.353485,92.502792 198.440475,93.448372 
	C203.223831,98.091324 208.007187,102.734268 213.146255,107.923553 
	C218.096268,110.016396 223.046280,112.109230 226.980942,114.623825 
	C222.122726,115.551163 217.283585,116.598442 212.401398,117.375023 
	C206.511124,118.311943 202.348251,121.076958 200.782242,127.287331 
	C200.782242,127.287331 200.728134,127.509796 200.211578,127.972649 
	C197.518692,132.809891 194.825806,137.647125 191.793564,143.136032 
	C192.388580,143.352570 192.983597,143.569122 194.034103,143.277908 
	C196.879700,138.607849 199.725296,133.937790 202.755844,129.114410 
	C202.755844,129.114410 202.757416,128.874176 203.282578,128.399155 
	C205.198837,123.402809 208.876236,121.094490 214.175949,120.628761 
	C221.771698,119.961250 229.334564,118.919624 237.627243,118.386185 
	C241.426117,120.937759 245.224976,123.489334 248.306091,126.430916 
	C241.767868,124.680016 235.815811,120.371223 227.838242,121.609367 
	C234.159149,129.410736 240.071930,136.708389 246.155273,144.666504 
	C251.886749,148.072342 257.618225,151.478165 263.336914,155.582062 
	C263.210175,156.028503 263.083435,156.474930 262.236053,156.653412 
	C260.220215,156.195007 258.204376,155.736618 255.885468,154.998154 
	C255.428696,155.193466 254.971939,155.388779 254.515167,155.584106 
	C254.954880,156.176910 255.394577,156.769714 255.996597,157.966843 
	C256.730438,158.961319 257.464264,159.955795 258.415039,161.576385 
	C262.938324,166.809158 267.461609,172.041931 271.984894,177.274704 
	C272.388428,176.982422 272.791992,176.690140 273.195526,176.397873 
	C271.852386,176.965439 270.509247,177.533005 268.915253,178.206573 
	C275.796967,180.556274 282.199005,182.742203 288.709229,185.676376 
	C290.810303,193.936066 292.911377,202.195755 294.985107,210.347992 
	C280.527832,203.503113 266.997070,197.096909 253.071625,190.264709 
	C252.334717,190.105820 251.597794,189.946915 250.181396,189.462524 
	C248.961731,189.185516 247.742081,188.908508 246.211136,188.282272 
	C245.470306,188.174576 244.729477,188.066864 243.539551,187.728943 
	C243.207703,187.690155 242.875854,187.651367 242.136002,187.239456 
	C241.073166,187.096542 240.010345,186.953629 238.518372,186.614624 
	C238.211655,186.517365 237.900146,186.498352 237.158936,186.198898 
	C236.086914,186.064255 235.014877,185.929611 233.521896,185.597763 
	C233.220184,185.498993 232.913452,185.479645 232.062408,185.175293 
	C230.360519,185.065933 228.658630,184.956589 226.257751,184.655350 
	C225.057037,184.581406 223.856323,184.507462 222.053757,184.127808 
	C220.066376,184.210602 218.078979,184.293396 215.292603,184.278687 
	C212.871811,184.474319 210.451035,184.669968 207.421860,184.659409 
	C205.741364,184.948273 204.060852,185.237137 201.777725,185.471207 
	C201.188370,185.590942 200.599014,185.710678 199.361313,185.691254 
	C190.157227,189.143173 180.953140,192.595093 171.030426,196.057877 
	C164.625336,200.055069 155.483795,201.468506 155.333435,212.171967 
	C152.750793,213.690659 150.101517,215.206161 155.008865,217.630661 
	C154.529846,218.537979 154.050812,219.445312 153.234406,220.991684 
	C162.311340,216.394592 170.664078,212.164276 179.016800,207.933975 
	C178.809540,207.475067 178.602280,207.016159 178.395020,206.557266 
	C175.123962,207.634644 171.713364,208.413086 168.614609,209.859573 
	C163.987930,212.019257 159.580933,214.649582 155.185028,216.349136 
	C155.460266,214.903091 155.735504,213.457031 156.740570,211.976532 
	C158.839996,210.728760 160.939423,209.481003 163.735336,208.017349 
	C172.033737,203.948563 180.332138,199.879791 189.395721,195.435822 
	C185.767548,195.948151 182.902359,196.352737 179.743820,196.276718 
	C179.479782,195.779755 179.215759,195.282806 179.538147,194.345627 
	C187.003281,192.133179 194.468399,189.920715 202.740509,187.764542 
	C205.148514,187.562103 207.556519,187.359665 210.669098,187.384079 
	C213.129898,187.316864 215.590698,187.249649 218.850693,187.347595 
	C221.252777,187.457336 223.654861,187.567093 226.479202,187.984573 
	C227.327896,188.020386 228.176605,188.056198 229.587189,188.312485 
	C230.184189,188.376114 230.781189,188.439743 231.825150,188.835617 
	C232.901749,188.956940 233.978333,189.078278 235.467834,189.411896 
	C235.467834,189.411896 235.920303,189.515961 235.920303,189.515961 
	C235.920303,189.515961 236.384247,189.498260 236.730713,189.831650 
	C237.498077,189.927795 238.265457,190.023926 239.456528,190.348846 
	C239.456528,190.348846 239.923096,190.467834 239.923096,190.467834 
	C239.923096,190.467834 240.404602,190.466965 240.855652,190.847763 
	C241.616623,190.974106 242.377579,191.100449 243.801987,191.564850 
	C245.001633,191.866333 246.201294,192.167831 247.845856,192.861847 
	C248.609238,192.998642 249.372620,193.135452 250.817520,193.645203 
	C269.158569,200.180710 285.557800,210.158859 301.494415,223.377960 
	C301.050293,220.267746 300.905853,218.633926 300.574951,217.038773 
	C298.301086,206.076431 295.988251,195.122208 294.191833,183.630447 
	C296.159454,179.441376 298.127075,175.252319 299.568451,172.183701 
	C294.274170,164.325073 300.207825,155.501785 295.907288,148.113342 
	C294.888397,150.958710 294.029266,153.358017 293.170105,155.757324 
	C292.947540,155.648346 292.725006,155.539383 292.502472,155.430405 
	C292.257935,151.999008 292.013428,148.567612 291.834259,144.228958 
	C291.577362,143.059357 291.320465,141.889755 291.923523,140.416473 
	C296.375183,143.832077 300.826843,147.247665 305.841919,151.095551 
	C308.957855,147.842270 312.355225,144.295151 316.198120,141.230057 
	C316.779114,142.149872 317.360077,143.069687 317.960510,144.886383 
	C317.920746,147.570374 317.880981,150.254349 317.128296,153.005524 
	C316.654541,153.074585 316.180817,153.143631 315.456726,152.600830 
	C315.304138,151.734833 315.151581,150.868820 315.043884,149.349777 
	C314.542358,148.541489 314.040833,147.733200 313.539307,146.924911 
	C313.378296,147.957626 313.217285,148.990341 313.024628,150.955429 
	C313.033722,156.301010 313.042816,161.646591 312.577423,167.423569 
	C311.582886,168.641312 310.588348,169.859055 310.327332,171.171082 
	C310.569183,171.123398 310.811066,171.075729 311.025665,170.947891 
	C311.025665,170.947891 310.945312,170.974609 310.988373,171.581665 
M175.187271,170.891144 
	C174.997864,171.185043 174.808441,171.478943 174.093353,172.162323 
	C172.261017,175.387527 170.428680,178.612732 168.116379,182.285538 
	C165.491821,186.705307 162.867264,191.125076 160.242706,195.544846 
	C160.804123,195.884354 161.365524,196.223846 161.926941,196.563354 
	C164.638672,192.069168 167.350388,187.574966 170.472260,182.544891 
	C172.329620,179.385529 174.186966,176.226166 176.293793,172.535004 
	C176.373764,172.155533 176.453720,171.776062 176.772171,170.998871 
	C176.375931,170.848557 175.979691,170.698227 175.187271,170.891144 
M190.033752,145.629532 
	C189.874725,145.935333 189.715714,146.241150 189.032669,146.957581 
	C187.115112,150.484085 185.197540,154.010590 183.000381,158.075302 
	C183.506485,158.266464 184.012589,158.457611 184.965958,158.142090 
	C187.012741,154.783859 189.059540,151.425629 191.473526,147.616470 
	C191.588791,147.251389 191.704056,146.886322 192.166840,145.884079 
	C191.589828,145.689301 191.012802,145.494507 190.033752,145.629532 
M425.558258,159.085358 
	C425.865387,159.516815 426.172485,159.948273 426.641815,161.080658 
	C429.048981,165.197006 431.456116,169.313354 433.863281,173.429703 
	C434.542633,173.019424 435.222015,172.609161 435.901398,172.198883 
	C433.433960,168.109589 430.966522,164.020294 428.237305,159.387817 
	C427.774109,158.756241 427.310913,158.124680 426.714691,156.878723 
	C426.146332,156.058014 425.577942,155.237289 424.869629,153.686127 
	C423.115509,150.761185 421.361420,147.836243 419.260681,144.169235 
	C418.542999,143.718384 417.825287,143.267532 417.107574,142.816696 
	C417.169098,143.653824 417.230621,144.490967 417.459717,146.046188 
	C419.459778,149.195007 421.459839,152.343826 423.679016,156.057877 
	C424.243042,156.901611 424.807068,157.745346 425.558258,159.085358 
M178.996094,168.175629 
	C180.387833,165.852371 181.779572,163.529129 183.054886,160.383728 
	C182.588715,160.184723 182.122543,159.985718 181.125214,160.183533 
	C179.901535,162.654343 178.677841,165.125137 177.194489,168.025482 
	C177.609497,168.200272 178.024506,168.375061 178.996094,168.175629 
M164.428268,220.270096 
	C161.839722,221.540497 159.251160,222.810898 156.662613,224.081299 
	C156.981827,224.641632 157.301056,225.201965 157.620270,225.762299 
	C160.488068,224.275513 163.355865,222.788742 166.416092,220.883865 
	C165.990036,220.642258 165.563980,220.400650 164.428268,220.270096 
M278.849091,217.156509 
	C276.147827,216.507294 273.446564,215.858063 270.077759,214.981033 
	C257.197083,209.764023 243.866486,206.601776 229.246979,205.887787 
	C226.521896,205.987350 223.796814,206.086914 220.173080,206.125320 
	C207.730530,206.473404 195.589935,208.438934 183.137527,212.938446 
	C178.903275,214.436523 174.669006,215.934601 170.434753,217.432678 
	C170.665558,218.077957 170.896362,218.723236 171.127151,219.368515 
	C175.905762,217.757339 180.684357,216.146164 186.261887,214.446594 
	C207.225296,209.360992 228.397949,207.221878 249.407364,213.223740 
	C260.482635,216.387680 270.999237,221.507309 282.162598,226.197067 
	C289.024689,231.427505 295.832275,236.733047 302.811493,241.802200 
	C303.785767,242.509842 306.069489,242.690353 306.958069,242.038834 
	C314.176666,236.746201 321.207153,231.197006 328.977966,225.461884 
	C329.685791,225.030991 330.372070,224.558990 331.104553,224.175156 
	C359.156189,209.474899 388.610870,206.380630 419.313202,213.479218 
	C420.586639,213.773636 421.959045,213.639893 423.285370,213.705627 
	C406.643860,205.635025 389.286133,204.990997 371.657867,206.716064 
	C356.530884,208.196350 342.512115,213.244400 328.418427,219.840073 
	C327.862854,219.501678 327.307251,219.163284 327.180664,218.319122 
	C328.572937,217.131302 329.965210,215.943481 331.357483,214.755646 
	C329.644318,214.319901 328.323853,214.524567 327.353882,215.218887 
	C321.152374,219.658066 314.818787,223.953156 308.962708,228.818146 
	C305.843262,231.409653 303.969543,231.192795 300.920013,228.775467 
	C294.953522,224.045883 288.542664,219.876831 281.887543,215.002396 
	C277.939575,212.825562 273.991608,210.648727 270.043671,208.471878 
	C269.762970,209.005463 269.482300,209.539032 269.201630,210.072601 
	C272.608856,212.316650 276.016113,214.560699 278.849091,217.156509 
M431.823914,197.708588 
	C427.412842,196.467987 423.001740,195.227386 418.590668,193.986786 
	C418.537140,194.315125 418.483612,194.643448 418.430054,194.971786 
	C428.727631,199.930283 439.025177,204.888763 449.938965,210.143997 
	C448.367828,206.670425 447.194855,204.077133 446.021912,201.483856 
	C445.842834,201.940399 445.663757,202.396942 445.484680,202.853470 
	C441.171265,201.236084 436.857819,199.618683 431.823914,197.708588 
M440.959961,209.501099 
	C437.778748,208.562042 434.597504,207.623001 431.416290,206.683945 
	C431.287201,207.089417 431.158142,207.494873 431.029053,207.900345 
	C438.716888,211.904022 446.404694,215.907700 454.092499,219.911377 
	C454.425537,219.356705 454.758545,218.802032 455.091553,218.247360 
	C450.608887,215.434998 446.126190,212.622635 440.959961,209.501099 
M409.869110,128.389130 
	C409.152557,128.811691 407.779907,129.541992 407.813171,129.612885 
	C410.056824,134.396378 411.920441,139.478928 416.303833,142.759933 
	C416.739044,142.519592 417.174255,142.279251 417.609467,142.038910 
	C415.243835,137.700531 412.878204,133.362152 409.869110,128.389130 
M444.356567,186.122269 
	C442.613708,183.211975 440.870850,180.301697 439.127960,177.391403 
	C438.540649,177.756897 437.953339,178.122391 437.366028,178.487885 
	C440.168732,183.306519 442.971436,188.125153 445.774139,192.943787 
	C446.183807,192.750122 446.593445,192.556442 447.003082,192.362778 
	C446.237152,190.495743 445.471252,188.628708 444.356567,186.122269 
M433.345947,218.125214 
	C436.013275,219.026550 438.680634,219.927887 441.347961,220.829224 
	C441.604492,220.131821 441.860992,219.434433 442.117493,218.737045 
	C437.747467,217.049255 433.377411,215.361450 429.007355,213.673660 
	C428.727844,214.226593 428.448303,214.779526 428.168762,215.332458 
	C429.656433,216.189178 431.144135,217.045914 433.345947,218.125214 
M437.043182,174.935852 
	C437.043182,174.935852 437.086029,174.989563 437.043182,174.935852 
M443.470673,221.496078 
	C443.470673,221.496078 443.502136,221.496368 443.470673,221.496078 
M457.493256,220.520187 
	C457.493256,220.520187 457.493011,220.496078 457.493256,220.520187 
M168.331375,219.483643 
	C168.331375,219.483643 168.581985,219.607468 168.581985,219.607468 
	C168.581985,219.607468 168.533051,219.346542 168.331375,219.483643 
z"/>
<path fill="#616A8F" opacity="1.000000" stroke="none" 
	d="
M383.903900,57.800312 
	C387.586273,53.936348 390.745544,49.281395 395.085297,46.411419 
	C400.346222,42.932243 406.604431,40.961040 412.431122,38.337341 
	C412.735352,38.759899 413.039581,39.182457 413.343811,39.605019 
	C412.585571,41.202374 411.827332,42.799732 410.669891,45.238083 
	C423.272644,41.270687 435.272034,38.160213 444.944855,29.175688 
	C444.397766,41.100750 441.274750,51.954681 431.759155,60.625366 
	C425.910461,59.885868 420.741669,58.529419 415.575836,58.540733 
	C407.087585,58.559319 398.606079,59.627247 390.110687,59.878433 
	C388.064026,59.938950 385.973999,58.532272 383.903900,57.800312 
z"/>
<path fill="#615280" opacity="1.000000" stroke="none" 
	d="
M413.052185,91.014374 
	C406.307037,97.542313 399.735901,104.267624 392.702393,110.468475 
	C390.787476,112.156693 387.479980,112.265373 384.071320,113.191971 
	C379.907745,114.540672 376.484497,115.796371 372.927002,116.696274 
	C371.136230,115.564270 369.550262,114.457954 367.807404,114.085144 
	C364.793335,113.440399 361.681915,113.250702 358.748230,112.541039 
	C363.683136,106.259651 368.481140,100.307327 373.566101,94.196190 
	C375.528198,92.557823 377.203308,91.078285 379.069244,89.958084 
	C380.241486,90.850143 381.231323,91.859413 382.203003,91.842224 
	C392.487732,91.660187 402.769562,91.314774 413.052185,91.014374 
z"/>
<path fill="#64658E" opacity="1.000000" stroke="none" 
	d="
M383.593018,57.927635 
	C385.973999,58.532272 388.064026,59.938950 390.110687,59.878433 
	C398.606079,59.627247 407.087585,58.559319 415.575836,58.540733 
	C420.741669,58.529419 425.910461,59.885868 431.451294,60.768509 
	C429.273041,63.077301 426.721497,65.245506 423.424896,68.046822 
	C425.701263,67.516441 427.207397,67.165512 429.386841,66.853111 
	C430.516510,66.946175 430.972900,67.000725 431.620789,67.068710 
	C431.812317,67.082146 432.185974,66.993729 432.185974,66.993729 
	C429.951141,69.873703 427.716278,72.753677 424.840485,75.613892 
	C421.154449,75.062454 418.128052,74.339233 415.060303,74.040100 
	C409.195068,73.468193 403.306335,73.137665 397.667786,72.450958 
	C399.714355,70.503342 401.520447,68.811722 403.326538,67.120102 
	C403.083313,66.819557 402.840057,66.519005 402.596802,66.218460 
	C399.593628,68.238853 396.590424,70.259254 393.088013,72.231392 
	C389.504547,72.114815 386.348969,72.413597 383.364288,71.833321 
	C381.711975,71.512070 380.345612,69.719727 378.850372,68.590485 
	C378.950287,67.924377 379.050232,67.258270 379.563080,66.097588 
	C380.225494,64.817818 380.475037,64.032616 380.724579,63.247421 
	C381.577087,61.516594 382.429596,59.785770 383.593018,57.927635 
M419.967957,67.806046 
	C419.580841,68.158348 419.193756,68.510643 418.806641,68.862953 
	C418.912323,68.975746 419.018005,69.088539 419.123718,69.201317 
	C419.493652,68.830299 419.863586,68.459274 419.967957,67.806046 
M407.495880,63.053284 
	C407.495880,63.053284 407.450653,63.011948 407.495880,63.053284 
M405.503723,66.523033 
	C405.503723,66.523033 405.492310,66.487488 405.503723,66.523033 
z"/>
<path fill="#625E88" opacity="1.000000" stroke="none" 
	d="
M195.100037,86.494446 
	C197.403976,86.541985 199.707901,86.589523 202.813171,86.578712 
	C205.591660,86.236534 207.568817,85.952713 209.545990,85.668900 
	C209.513397,85.222214 209.480804,84.775520 209.448212,84.328835 
	C207.267914,84.328835 205.087616,84.328835 202.907318,84.328835 
	C190.373688,83.899940 183.073059,76.192596 176.775711,65.334900 
	C179.834534,66.140976 182.058365,66.727005 184.619354,67.174210 
	C184.956497,67.035378 184.927246,66.951302 185.042877,67.143280 
	C185.551712,67.202332 185.944946,67.069405 186.720078,66.943420 
	C188.932800,67.595100 190.731033,68.361969 192.600754,68.860825 
	C197.482224,70.163208 202.413773,71.651329 207.309143,68.140617 
	C214.774429,74.743629 221.941467,81.197227 228.791534,87.891830 
	C223.269424,88.578606 218.071091,89.147675 212.857239,89.436592 
	C207.278641,89.745705 201.685379,89.790771 196.098526,89.951088 
	C195.373596,89.131371 194.648682,88.311646 194.163589,87.121414 
	C194.635620,86.665428 194.867828,86.579941 195.100037,86.494446 
z"/>
<path fill="#616C90" opacity="1.000000" stroke="none" 
	d="
M171.839233,53.060406 
	C166.826599,45.902252 165.353699,37.737156 164.976242,28.940897 
	C174.274567,38.769112 187.622421,40.303535 199.444351,46.725948 
	C198.247986,44.063389 197.265854,41.877605 195.889664,38.814819 
	C204.816193,40.877384 212.641739,43.074490 218.505615,50.059731 
	C216.442780,51.064716 214.416779,51.900505 212.376617,51.936615 
	C203.794495,52.088528 195.205811,51.880848 186.624298,52.048481 
	C181.691223,52.144844 176.767288,52.707596 171.839233,53.060406 
M201.502747,48.524372 
	C201.502747,48.524372 201.490509,48.487488 201.502747,48.524372 
z"/>
<path fill="#635683" opacity="1.000000" stroke="none" 
	d="
M196.083282,90.175079 
	C201.685379,89.790771 207.278641,89.745705 212.857239,89.436592 
	C218.071091,89.147675 223.269424,88.578606 229.060822,88.076706 
	C230.692032,88.761139 231.736984,89.501709 233.103836,90.272507 
	C233.614960,90.199577 233.804199,90.096420 233.997208,89.997070 
	C234.000961,90.000893 234.008835,90.008736 234.008514,90.296448 
	C234.335541,90.719460 234.662872,90.854767 234.995117,90.995079 
	C235.000046,91.000084 235.010147,91.010048 235.007889,91.298096 
	C235.333221,91.720207 235.660828,91.854263 235.994019,91.993935 
	C235.999619,91.999550 236.010788,92.010681 235.914490,92.364464 
	C238.574860,96.383293 241.331543,100.048340 243.843704,104.031082 
	C241.615555,104.898438 239.645493,105.855499 237.645767,105.922058 
	C231.402435,106.129852 225.144760,105.890327 218.899445,106.065697 
	C216.852493,106.123169 214.826248,106.919037 212.790543,107.377220 
	C208.007187,102.734268 203.223831,98.091324 198.101868,92.955521 
	C197.209244,91.924072 196.655212,91.385483 196.101196,90.846886 
	C196.101196,90.846886 196.068054,90.399078 196.083282,90.175079 
z"/>
<path fill="#DD606C" opacity="1.000000" stroke="none" 
	d="
M209.964523,187.157227 
	C207.556519,187.359665 205.148514,187.562103 202.137115,187.552155 
	C201.025696,186.836639 200.517670,186.333542 200.009659,185.830414 
	C200.599014,185.710678 201.188370,185.590942 202.494431,185.603470 
	C204.817505,185.445694 206.423874,185.155640 208.030243,184.865601 
	C210.451035,184.669968 212.871811,184.474319 216.064941,184.485870 
	C218.776733,184.606552 220.716171,184.520050 222.655609,184.433533 
	C223.856323,184.507462 225.057037,184.581406 226.960510,184.961700 
	C229.309418,185.358597 230.955566,185.449158 232.601730,185.539703 
	C232.913452,185.479645 233.220184,185.498993 234.051117,185.913208 
	C235.581528,186.338303 236.582687,186.447937 237.583862,186.557587 
	C237.900146,186.498352 238.211655,186.517365 239.046875,186.928894 
	C240.564926,187.366302 241.554459,187.489456 242.544006,187.612610 
	C242.875854,187.651367 243.207703,187.690155 244.038757,188.045914 
	C245.199448,188.452423 245.860931,188.541962 246.522415,188.631500 
	C247.742081,188.908508 248.961731,189.185516 250.724869,189.831573 
	C252.001007,190.363968 252.733673,190.527344 253.466339,190.690704 
	C266.997070,197.096909 280.527832,203.503113 294.985107,210.347992 
	C292.911377,202.195755 290.810303,193.936066 288.621704,185.006165 
	C287.667267,181.578079 286.800323,178.820190 286.355957,176.059753 
	C287.909485,176.067322 289.040497,176.077423 290.380005,176.365234 
	C291.621704,179.150406 292.654816,181.657883 293.687927,184.165359 
	C295.988251,195.122208 298.301086,206.076431 300.574951,217.038773 
	C300.905853,218.633926 301.050293,220.267746 301.494415,223.377960 
	C285.557800,210.158859 269.158569,200.180710 250.261444,193.247864 
	C248.937210,192.723434 248.169083,192.596375 247.400940,192.469315 
	C246.201294,192.167831 245.001633,191.866333 243.252899,191.189056 
	C241.937408,190.697845 241.171005,190.582413 240.404602,190.466965 
	C240.404602,190.466965 239.923096,190.467834 239.923096,190.467834 
	C239.923096,190.467834 239.456528,190.348846 238.953796,190.033508 
	C237.762115,189.644867 237.073181,189.571564 236.384247,189.498260 
	C236.384247,189.498260 235.920303,189.515961 235.920303,189.515961 
	C235.920303,189.515961 235.467834,189.411896 234.939896,189.087311 
	C233.400696,188.676285 232.389450,188.589828 231.378189,188.503372 
	C230.781189,188.439743 230.184189,188.376114 229.105743,188.017441 
	C227.768524,187.707214 226.912735,187.692032 226.056946,187.676849 
	C223.654861,187.567093 221.252777,187.457336 218.123230,187.066620 
	C214.918671,186.909500 212.441605,187.033371 209.964523,187.157227 
z"/>
<path fill="#DD606C" opacity="1.000000" stroke="none" 
	d="
M369.998566,187.007843 
	C370.595459,186.851685 371.192383,186.695526 372.440063,186.603149 
	C373.728394,186.440842 374.365936,186.214722 375.003479,185.988617 
	C375.593872,185.832687 376.184235,185.676773 377.474731,185.624817 
	C379.453644,185.469650 380.732452,185.210495 382.011292,184.951324 
	C383.533020,184.760834 385.054749,184.570328 387.372375,184.541412 
	C390.088470,184.594925 392.008667,184.486847 393.928833,184.378769 
	C396.056274,184.474472 398.183746,184.570160 400.611328,185.176941 
	C400.942261,186.105682 400.973114,186.523361 401.003967,186.941025 
	C395.588776,187.197266 390.173553,187.453491 384.103790,187.563492 
	C382.626709,187.638748 381.804169,187.860245 380.981659,188.081757 
	C380.396698,188.224197 379.811737,188.366623 378.543640,188.415482 
	C376.893707,188.608215 375.926910,188.894501 374.960083,189.180786 
	C374.696564,189.361664 374.405914,189.469589 373.505249,189.443573 
	C372.274445,189.620911 371.626648,189.859238 370.978821,190.097534 
	C370.705627,190.285446 370.404694,190.401245 369.539398,190.379547 
	C368.291840,190.609909 367.580841,190.905685 366.869873,191.201477 
	C345.552399,197.487152 326.459991,207.931396 309.648468,222.638596 
	C309.172424,222.350143 308.696381,222.061676 308.220337,221.773224 
	C310.922699,209.509506 313.625092,197.245789 316.598389,184.351410 
	C317.893707,181.161697 318.918152,178.602661 320.230499,176.191437 
	C320.983887,178.554108 321.449371,180.768967 321.922241,183.308136 
	C321.914948,184.064377 321.900269,184.496292 321.885559,184.928223 
	C321.885559,184.928223 321.948120,184.961151 321.746918,184.908493 
	C321.393494,185.207657 321.241272,185.559479 321.089050,185.911316 
	C319.056519,194.188950 317.023956,202.466599 315.036774,210.559525 
	C328.045929,204.126617 340.460388,197.987778 353.511963,191.827789 
	C354.809692,191.471878 355.470337,191.137100 356.130951,190.802322 
	C358.319885,190.093628 360.508789,189.384933 363.417664,188.687958 
	C364.762146,188.449875 365.386719,188.200089 366.011322,187.950302 
	C366.321930,187.833069 366.632568,187.715851 367.531067,187.648666 
	C368.745483,187.468414 369.372009,187.238144 369.998566,187.007843 
z"/>
<path fill="#5E4373" opacity="1.000000" stroke="none" 
	d="
M269.778839,111.113472 
	C270.633606,114.546661 271.488373,117.979843 272.343109,121.413033 
	C273.032867,121.340508 273.722595,121.267982 274.412354,121.195465 
	C273.943451,114.715919 273.474548,108.236382 272.938324,100.826431 
	C279.225006,112.098389 285.091583,122.617157 290.882935,133.755722 
	C290.889221,136.445602 290.970795,138.515701 290.592896,140.662186 
	C285.104156,140.826935 280.074890,140.915283 274.819885,140.754059 
	C272.325134,137.013382 270.056091,133.522293 267.691345,129.705536 
	C265.736023,126.253868 263.876434,123.127869 262.394592,119.918503 
	C268.892883,119.968613 268.993317,115.265862 269.778839,111.113472 
z"/>
<path fill="#605C85" opacity="1.000000" stroke="none" 
	d="
M227.359482,59.346802 
	C228.945114,62.326340 230.530762,65.305878 232.652603,69.292969 
	C232.832397,66.568848 232.937180,64.981369 233.110687,62.352741 
	C244.231674,67.339561 251.940903,75.233368 258.280090,84.733070 
	C249.554016,85.415894 241.138565,85.771858 232.520935,86.074722 
	C232.318741,86.021622 231.933487,85.853790 231.806534,85.710953 
	C231.503326,85.383621 231.314453,85.213104 230.875488,84.814064 
	C225.897934,80.469017 221.157837,76.366470 216.837189,72.096672 
	C219.038483,71.624756 220.811890,71.126968 222.603622,71.048698 
	C230.544662,70.701790 231.045319,69.967209 227.860977,62.782909 
	C227.593002,62.178291 227.274124,61.596233 227.068451,60.588184 
	C227.225159,59.897381 227.292328,59.622089 227.359482,59.346802 
z"/>
<path fill="#5F4173" opacity="1.000000" stroke="none" 
	d="
M245.984711,144.006042 
	C240.071930,136.708389 234.159149,129.410736 227.838242,121.609367 
	C235.815811,120.371223 241.767868,124.680016 248.635864,126.219193 
	C248.965637,126.007477 248.979340,125.941338 248.908081,126.284073 
	C249.575638,127.099541 250.314438,127.572266 251.016052,128.034546 
	C250.978851,128.024094 250.951233,127.951935 250.999725,128.213440 
	C251.681717,128.359192 252.315216,128.243454 253.105667,127.817070 
	C255.189972,126.287933 257.117340,125.069443 259.295776,124.083115 
	C261.294312,126.642715 263.041748,128.970139 264.818909,131.647461 
	C266.740662,135.615585 268.632751,139.233780 270.084167,142.952942 
	C261.757233,143.371277 253.870956,143.688660 245.984711,144.006042 
z"/>
<path fill="#625E88" opacity="1.000000" stroke="none" 
	d="
M397.427338,72.706955 
	C403.306335,73.137665 409.195068,73.468193 415.060303,74.040100 
	C418.128052,74.339233 421.154449,75.062454 424.534729,75.760162 
	C422.975250,77.700691 421.080566,79.475204 418.577576,81.331924 
	C417.271820,81.764351 416.574371,82.114563 415.876923,82.464783 
	C415.457794,82.582840 415.038666,82.700897 414.114868,82.733215 
	C413.029907,82.904701 412.449646,83.161949 411.869354,83.419189 
	C411.146057,83.565422 410.422760,83.711647 408.985168,83.683929 
	C405.193359,83.610519 402.115875,83.711052 399.038361,83.811584 
	C399.022766,84.416199 399.007141,85.020813 398.991547,85.625427 
	C400.664337,86.080109 402.337158,86.534782 404.009949,86.989471 
	C407.397858,86.939980 410.785767,86.890488 414.618408,87.257980 
	C415.090912,87.899803 415.118744,88.124641 415.146576,88.349487 
	C414.615875,89.141769 414.085144,89.934036 413.303284,90.870346 
	C402.769562,91.314774 392.487732,91.660187 382.203003,91.842224 
	C381.231323,91.859413 380.241486,90.850143 379.246094,89.701584 
	C385.297180,83.626144 391.362244,78.166550 397.427338,72.706955 
z"/>
<path fill="#5F4173" opacity="1.000000" stroke="none" 
	d="
M357.979218,128.060181 
	C361.645355,126.614883 365.247925,124.969620 368.994934,123.778847 
	C372.974731,122.514114 377.091583,121.680511 381.148560,120.658630 
	C381.335785,121.103058 381.523010,121.547485 381.710236,121.991905 
	C375.951569,129.175919 370.192902,136.359924 363.713226,143.762482 
	C354.934387,143.971252 346.876556,143.961472 338.906921,143.605408 
	C339.771301,141.513107 340.547485,139.767075 341.563599,137.808502 
	C343.451324,135.037369 345.099121,132.478745 347.185608,129.934113 
	C350.561493,129.643188 353.498627,129.338257 356.765808,128.942932 
	C357.416565,128.550415 357.737305,128.248245 358.051208,127.983521 
	C358.044403,128.020950 357.979218,128.060181 357.979218,128.060181 
z"/>
<path fill="#625E88" opacity="1.000000" stroke="none" 
	d="
M378.512787,68.531082 
	C380.345612,69.719727 381.711975,71.512070 383.364288,71.833321 
	C386.348969,72.413597 389.504547,72.114815 392.839478,72.485931 
	C387.490143,77.552925 381.890106,82.317116 375.853638,87.028580 
	C369.650055,86.648773 363.854889,86.553238 358.131897,85.860817 
	C356.291351,85.638130 354.641174,83.841827 352.903900,82.765442 
	C358.436615,74.064758 369.135040,65.173752 376.332031,63.295338 
	C376.946442,65.020782 377.560822,66.746239 378.512787,68.531082 
z"/>
<path fill="#61688E" opacity="1.000000" stroke="none" 
	d="
M227.313568,59.070339 
	C227.292328,59.622089 227.225159,59.897381 226.652924,60.630821 
	C221.021744,61.278141 215.895309,61.459198 210.769638,61.659908 
	C208.169205,61.761738 205.570175,61.899017 202.602539,62.017052 
	C201.498489,62.013935 200.762405,62.014042 199.757828,61.818436 
	C197.987732,61.014267 196.398270,59.740433 195.001373,59.924885 
	C191.152908,60.433064 187.368683,61.489876 183.600876,62.487621 
	C182.942749,62.661896 182.487930,63.603962 181.939209,64.191422 
	C178.619247,60.709965 175.299286,57.228500 171.909286,53.403725 
	C176.767288,52.707596 181.691223,52.144844 186.624298,52.048481 
	C195.205811,51.880848 203.794495,52.088528 212.376617,51.936615 
	C214.416779,51.900505 216.442780,51.064716 218.730988,50.311874 
	C220.613266,51.464413 222.239838,52.901829 224.023605,54.947182 
	C224.768845,56.041630 225.356918,56.528137 225.944977,57.014645 
	C226.385864,57.607727 226.826752,58.200802 227.313568,59.070339 
z"/>
<path fill="#635683" opacity="1.000000" stroke="none" 
	d="
M352.615234,82.946991 
	C354.641174,83.841827 356.291351,85.638130 358.131897,85.860817 
	C363.854889,86.553238 369.650055,86.648773 375.661682,87.308418 
	C374.492798,89.335312 373.079468,91.029648 371.387390,92.898338 
	C366.922363,97.436882 362.736115,101.801071 358.049835,106.137039 
	C352.107849,105.761871 346.665833,105.414925 341.223877,105.067978 
	C341.279144,103.969276 341.334412,102.870583 341.753754,101.178787 
	C342.333374,99.834015 342.548920,99.082352 342.764496,98.330688 
	C345.951874,93.263306 349.139221,88.195930 352.615234,82.946991 
z"/>
<path fill="#604B7A" opacity="1.000000" stroke="none" 
	d="
M259.044708,123.850952 
	C257.117340,125.069443 255.189972,126.287933 252.777679,127.716003 
	C251.845566,127.934372 251.398407,127.943146 250.951233,127.951935 
	C250.951233,127.951935 250.978851,128.024094 251.044952,127.688263 
	C250.400497,126.882065 249.689911,126.411705 248.979340,125.941338 
	C248.979340,125.941338 248.965637,126.007477 248.994751,126.024185 
	C245.224976,123.489334 241.426117,120.937759 237.066925,118.003555 
	C233.669830,116.481308 230.833069,115.341690 227.996292,114.202065 
	C223.046280,112.109230 218.096268,110.016396 212.968399,107.650391 
	C214.826248,106.919037 216.852493,106.123169 218.899445,106.065697 
	C225.144760,105.890327 231.402435,106.129852 237.645767,105.922058 
	C239.645493,105.855499 241.615555,104.898438 244.126831,104.233292 
	C249.451202,110.695511 254.247955,117.273239 259.044708,123.850952 
z"/>
<path fill="#523261" opacity="1.000000" stroke="none" 
	d="
M329.042603,220.038284 
	C342.512115,213.244400 356.530884,208.196350 371.657867,206.716064 
	C389.286133,204.990997 406.643860,205.635025 423.285370,213.705627 
	C421.959045,213.639893 420.586639,213.773636 419.313202,213.479218 
	C388.610870,206.380630 359.156189,209.474899 331.104553,224.175156 
	C330.372070,224.558990 329.685791,225.030991 328.453125,225.163757 
	C327.395325,224.113892 326.862366,223.362152 326.596863,222.429901 
	C327.590424,221.512360 328.316528,220.775330 329.042603,220.038284 
z"/>
<path fill="#523261" opacity="1.000000" stroke="none" 
	d="
M183.914200,212.894485 
	C195.589935,208.438934 207.730530,206.473404 220.964661,206.310471 
	C224.481979,206.394043 227.207718,206.292480 229.933441,206.190903 
	C243.866486,206.601776 257.197083,209.764023 270.573944,215.392426 
	C274.711243,217.894012 278.352356,219.984207 281.978149,222.531494 
	C281.897949,223.907028 281.833008,224.825470 281.768066,225.743912 
	C270.999237,221.507309 260.482635,216.387680 249.407364,213.223740 
	C228.397949,207.221878 207.225296,209.360992 185.597809,214.220612 
	C184.593887,213.627914 184.254044,213.261200 183.914200,212.894485 
z"/>
<path fill="#5D2F66" opacity="1.000000" stroke="none" 
	d="
M285.933411,176.062302 
	C286.800323,178.820190 287.667267,181.578079 288.567627,184.632034 
	C282.199005,182.742203 275.796967,180.556274 268.915253,178.206573 
	C270.509247,177.533005 271.852386,176.965439 273.195526,176.397873 
	C272.791992,176.690140 272.388428,176.982422 271.984894,177.274704 
	C267.461609,172.041931 262.938324,166.809158 258.760315,161.270233 
	C265.633240,160.555542 272.160858,160.147003 278.886780,160.004822 
	C281.367828,165.534897 283.650635,170.798599 285.933411,176.062302 
z"/>
<path fill="#5D2F66" opacity="1.000000" stroke="none" 
	d="
M322.258636,184.927734 
	C321.900269,184.496292 321.914948,184.064377 322.107147,183.003632 
	C325.275177,174.818878 328.265686,167.262939 331.689819,159.878052 
	C338.673676,160.348114 345.223938,160.647110 351.774231,160.946106 
	C346.976532,166.085724 342.178864,171.225357 337.263733,176.490814 
	C338.010071,176.796738 339.402710,177.367584 340.995911,178.020645 
	C334.729675,180.377319 328.680695,182.652283 322.258636,184.927734 
z"/>
<path fill="#635683" opacity="1.000000" stroke="none" 
	d="
M232.723129,86.127831 
	C241.138565,85.771858 249.554016,85.415894 258.380951,85.050293 
	C261.624329,89.414757 264.456177,93.788857 266.921936,98.620232 
	C259.657318,99.396774 252.758865,99.716034 245.582550,99.860107 
	C242.206711,97.126846 239.108749,94.568764 236.010788,92.010681 
	C236.010788,92.010681 235.999619,91.999550 236.001495,91.703239 
	C235.672302,91.274635 235.341232,91.142342 235.010147,91.010048 
	C235.010147,91.010048 235.000046,91.000084 235.001312,90.704323 
	C234.671341,90.275284 234.340088,90.142014 234.008835,90.008743 
	C234.008835,90.008736 234.000961,90.000893 234.163834,89.695618 
	C234.306046,89.161652 234.285385,88.932953 234.156311,88.423523 
	C233.606308,87.471123 233.164719,86.799477 232.723129,86.127831 
z"/>
<path fill="#64658E" opacity="1.000000" stroke="none" 
	d="
M202.970505,62.020279 
	C205.570175,61.899017 208.169205,61.761738 210.769638,61.659908 
	C215.895309,61.459198 221.021744,61.278141 226.563385,61.046329 
	C227.274124,61.596233 227.593002,62.178291 227.860977,62.782909 
	C231.045319,69.967209 230.544662,70.701790 222.603622,71.048698 
	C220.811890,71.126968 219.038483,71.624756 216.557159,71.966515 
	C213.330490,70.200958 210.875015,68.282318 208.240555,66.653160 
	C207.197693,66.008232 204.915497,65.243950 207.010910,67.991196 
	C202.413773,71.651329 197.482224,70.163208 192.600754,68.860825 
	C190.731033,68.361969 188.932800,67.595100 186.367249,66.952545 
	C185.397446,66.953590 185.162354,66.952446 184.927246,66.951302 
	C184.927246,66.951302 184.956497,67.035378 184.993958,67.059158 
	C184.110306,66.292709 183.189178,65.502495 182.103638,64.451851 
	C182.487930,63.603962 182.942749,62.661896 183.600876,62.487621 
	C187.368683,61.489876 191.152908,60.433064 195.001373,59.924885 
	C196.398270,59.740433 197.987732,61.014267 199.870697,62.071617 
	C201.158218,62.353767 202.064362,62.187023 202.970505,62.020279 
M204.459076,63.977009 
	C204.459076,63.977009 204.518555,63.956638 204.459076,63.977009 
z"/>
<path fill="#604B7A" opacity="1.000000" stroke="none" 
	d="
M341.036316,105.406219 
	C346.665833,105.414925 352.107849,105.761871 357.882751,106.457809 
	C353.617249,112.910034 349.018860,119.013260 344.075226,124.988983 
	C341.233887,125.376976 338.737793,125.892479 335.487213,126.563789 
	C332.899292,125.322525 329.377045,123.633125 325.854797,121.943726 
	C328.734314,116.423264 331.613831,110.902817 334.493347,105.382362 
	C334.819702,105.533035 335.146057,105.683701 335.472412,105.834373 
	C335.472412,111.226219 335.472412,116.618073 335.472412,122.009918 
	C340.397736,117.410492 339.046021,111.105141 341.036316,105.406219 
z"/>
<path fill="#60396F" opacity="1.000000" stroke="none" 
	d="
M352.022858,160.754227 
	C345.223938,160.647110 338.673676,160.348114 331.770172,159.503418 
	C333.884247,153.955719 336.351501,148.953705 338.818756,143.951691 
	C346.876556,143.961472 354.934387,143.971252 363.455017,143.976517 
	C361.190460,150.177414 354.703217,150.972977 348.992065,153.958923 
	C345.847717,154.808350 343.387665,155.568710 340.927582,156.329056 
	C341.097290,156.968048 341.267029,157.607040 341.436737,158.246048 
	C344.263672,157.554413 347.090637,156.862793 349.917603,156.171173 
	C351.036469,155.874634 352.155334,155.578110 353.640839,155.643524 
	C354.055634,156.453735 354.103790,156.901978 354.151917,157.350220 
	C353.525116,158.420944 352.898285,159.491638 352.022858,160.754227 
z"/>
<path fill="#60396F" opacity="1.000000" stroke="none" 
	d="
M278.688507,159.738464 
	C272.160858,160.147003 265.633240,160.555542 258.651855,160.957184 
	C257.464264,159.955795 256.730438,158.961319 256.009949,157.144196 
	C256.078400,155.973770 256.133453,155.625992 256.188538,155.278214 
	C258.204376,155.736618 260.220215,156.195007 262.906677,156.982956 
	C265.310608,157.457916 267.043915,157.603317 268.777252,157.748718 
	C268.856354,157.192017 268.935425,156.635330 269.014526,156.078629 
	C267.126251,155.680420 265.237976,155.282211 263.349701,154.883987 
	C257.618225,151.478165 251.886749,148.072342 246.069977,144.336273 
	C253.870956,143.688660 261.757233,143.371277 270.255981,143.223602 
	C273.475128,148.841690 276.081818,154.290070 278.688507,159.738464 
z"/>
<path fill="#5E4373" opacity="1.000000" stroke="none" 
	d="
M325.600159,122.160339 
	C329.377045,123.633125 332.899292,125.322525 335.487213,126.563789 
	C338.737793,125.892479 341.233887,125.376976 343.930359,125.310501 
	C341.818390,129.845291 339.506073,133.931046 336.969604,138.271301 
	C336.039154,139.683319 335.332825,140.840851 334.187531,141.999084 
	C331.627960,141.999222 329.405121,142.402496 327.412262,141.897736 
	C324.815247,141.239944 322.400635,139.861969 319.921814,138.395142 
	C319.957703,136.094421 319.979279,134.192474 320.000854,132.290527 
	C321.782410,128.986008 323.563965,125.681480 325.600159,122.160339 
z"/>
<path fill="#5A2E61" opacity="1.000000" stroke="none" 
	d="
M293.939880,183.897903 
	C292.654816,181.657883 291.621704,179.150406 290.333038,175.972855 
	C288.263184,170.230560 286.448853,165.158356 285.001160,159.951508 
	C288.845428,159.299362 290.216400,157.030731 290.565765,153.768982 
	C290.875031,150.881577 291.360962,148.013077 291.768921,145.136215 
	C292.013428,148.567612 292.257935,151.999008 292.502472,155.430405 
	C292.725006,155.539383 292.947540,155.648346 293.170105,155.757324 
	C294.029266,153.358017 294.888397,150.958710 295.907288,148.113342 
	C300.207825,155.501785 294.274170,164.325073 299.568451,172.183701 
	C298.127075,175.252319 296.159454,179.441376 293.939880,183.897903 
z"/>
<path fill="#615280" opacity="1.000000" stroke="none" 
	d="
M245.860413,100.035294 
	C252.758865,99.716034 259.657318,99.396774 266.996521,98.978180 
	C267.926971,100.377823 268.416687,101.876808 268.711670,104.004662 
	C268.820648,106.094070 269.124420,107.554619 269.428223,109.015167 
	C269.554047,109.474976 269.679871,109.934799 269.792267,110.754044 
	C268.993317,115.265862 268.892883,119.968613 262.138367,119.699501 
	C256.289734,113.054344 251.075073,106.544815 245.860413,100.035294 
z"/>
<path fill="#56285E" opacity="1.000000" stroke="none" 
	d="
M281.965332,225.970490 
	C281.833008,224.825470 281.897949,223.907028 282.313538,222.633377 
	C286.108612,223.861847 289.553009,225.445526 293.002869,227.012283 
	C293.008331,226.995377 292.975677,227.009171 293.213593,227.286423 
	C294.147095,227.714783 294.842651,227.865891 295.600769,228.115082 
	C295.663330,228.213181 296.000031,228.531952 296.028503,228.925079 
	C297.521576,230.221695 298.986115,231.125168 300.531738,232.119080 
	C300.612762,232.209488 300.980835,232.525620 301.086609,232.816772 
	C301.463623,233.411133 301.734863,233.714371 302.008514,234.003326 
	C302.010895,233.989059 301.982330,233.993546 302.109497,234.204163 
	C302.444275,234.677811 302.700562,234.878662 303.003174,235.003571 
	C303.000732,234.989777 302.980316,235.009262 303.101318,235.322510 
	C307.833740,238.790939 308.731110,233.948929 311.005829,232.032135 
	C311.025574,232.034088 311.032684,231.995071 311.364624,231.932343 
	C313.829529,230.305145 315.962494,228.740677 318.377136,226.979126 
	C321.215668,225.391510 323.772552,224.000946 326.329407,222.610397 
	C326.862366,223.362152 327.395325,224.113892 328.111633,225.295792 
	C321.207153,231.197006 314.176666,236.746201 306.958069,242.038834 
	C306.069489,242.690353 303.785767,242.509842 302.811493,241.802200 
	C295.832275,236.733047 289.024689,231.427505 281.965332,225.970490 
z"/>
<path fill="#60396F" opacity="1.000000" stroke="none" 
	d="
M319.907532,138.793915 
	C322.400635,139.861969 324.815247,141.239944 327.412262,141.897736 
	C329.405121,142.402496 331.627960,141.999222 334.114258,142.327072 
	C331.046021,149.447632 327.612030,156.240921 323.845062,162.962448 
	C322.048309,161.941040 320.584564,160.991425 319.063049,159.639801 
	C318.617279,157.137985 318.229248,155.038162 317.841217,152.938339 
	C317.880981,150.254349 317.920746,147.570374 318.123535,144.111771 
	C318.584778,141.863785 318.883026,140.390411 319.362671,138.885254 
	C319.544067,138.853455 319.907532,138.793915 319.907532,138.793915 
z"/>
<path fill="#604B7A" opacity="1.000000" stroke="none" 
	d="
M356.435791,129.033310 
	C353.498627,129.338257 350.561493,129.643188 347.346405,129.625916 
	C350.916107,123.825836 354.763702,118.347969 358.611328,112.870110 
	C361.681915,113.250702 364.793335,113.440399 367.807404,114.085144 
	C369.550262,114.457954 371.136230,115.564270 372.907959,116.945267 
	C373.008362,117.716209 372.993591,117.882355 372.978790,118.048508 
	C368.063812,121.173973 363.148804,124.299446 358.106506,127.742546 
	C357.979218,128.060181 358.044403,128.020950 357.741882,128.099380 
	C357.104828,128.462982 356.770294,128.748154 356.435791,129.033310 
z"/>
<path fill="#60396F" opacity="1.000000" stroke="none" 
	d="
M291.801575,144.682587 
	C291.360962,148.013077 290.875031,150.881577 290.565765,153.768982 
	C290.216400,157.030731 288.845428,159.299362 284.778687,159.704254 
	C281.141602,153.395630 278.093628,147.199631 275.045624,141.003632 
	C280.074890,140.915283 285.104156,140.826935 290.614319,140.695358 
	C291.095245,140.652130 291.063568,140.720154 291.063568,140.720154 
	C291.320465,141.889755 291.577362,143.059357 291.801575,144.682587 
z"/>
<path fill="#56597C" opacity="1.000000" stroke="none" 
	d="
M291.493530,140.568314 
	C291.063568,140.720154 291.095245,140.652130 291.073792,140.618958 
	C290.970795,138.515701 290.889221,136.445602 291.000305,134.082123 
	C294.682404,136.511292 298.455017,138.948380 301.575317,142.043137 
	C304.266205,144.711975 305.927734,144.544785 308.490570,141.973709 
	C311.879272,138.574081 315.731323,135.636307 319.692505,132.395264 
	C319.979279,134.192474 319.957703,136.094421 319.921814,138.395142 
	C319.907532,138.793915 319.544067,138.853455 318.999786,138.893860 
	C317.554535,139.538864 316.653595,140.143463 315.752625,140.748047 
	C312.355225,144.295151 308.957855,147.842270 305.841919,151.095551 
	C300.826843,147.247665 296.375183,143.832077 291.493530,140.568314 
z"/>
<path fill="#5D2F66" opacity="1.000000" stroke="none" 
	d="
M319.120789,160.041809 
	C320.584564,160.991425 322.048309,161.941040 323.779510,163.331604 
	C322.678833,167.862900 321.310730,171.953262 319.942596,176.043625 
	C318.918152,178.602661 317.893707,181.161697 316.626526,183.966324 
	C314.781372,180.407822 313.178986,176.603729 312.047180,172.269455 
	C312.695801,170.156906 312.873871,168.574539 313.051910,166.992172 
	C313.042816,161.646591 313.033722,156.301010 313.364197,150.484741 
	C314.135498,150.010300 314.567261,150.006561 314.998993,150.002823 
	C315.151581,150.868820 315.304138,151.734833 315.590149,153.273407 
	C316.856018,155.977921 317.988403,158.009857 319.120789,160.041809 
z"/>
<path fill="#4C2856" opacity="1.000000" stroke="none" 
	d="
M300.980835,232.525620 
	C300.980835,232.525620 300.612762,232.209488 300.266174,231.867126 
	C298.613068,230.527161 297.306549,229.529556 296.000031,228.531952 
	C296.000031,228.531952 295.663330,228.213181 295.310181,227.918152 
	C294.296570,227.418457 293.636108,227.213821 292.975677,227.009186 
	C292.975677,227.009171 293.008331,226.995377 292.886597,226.694138 
	C288.842529,223.262161 284.920227,220.131409 281.192261,216.726715 
	C281.696320,216.127090 282.006042,215.801422 282.315765,215.475754 
	C288.542664,219.876831 294.953522,224.045883 300.920013,228.775467 
	C303.969543,231.192795 305.843262,231.409653 308.962708,228.818146 
	C314.818787,223.953156 321.152374,219.658066 327.353882,215.218887 
	C328.323853,214.524567 329.644318,214.319901 331.357483,214.755646 
	C329.965210,215.943481 328.572937,217.131302 326.658081,218.696869 
	C323.019501,221.353363 319.903534,223.632126 316.524048,226.098129 
	C314.517944,228.188614 312.775299,230.091843 311.032684,231.995071 
	C311.032684,231.995071 311.025574,232.034088 310.641724,232.018402 
	C307.832001,233.004883 305.406158,234.007065 302.980316,235.009247 
	C302.980316,235.009262 303.000732,234.989777 302.859680,234.807251 
	C302.505432,234.376678 302.260010,234.166290 301.982330,233.993546 
	C301.982330,233.993546 302.010895,233.989059 301.850372,233.747528 
	C301.453522,233.179199 301.217163,232.852402 300.980835,232.525620 
z"/>
<path fill="#576684" opacity="1.000000" stroke="none" 
	d="
M227.488617,114.412949 
	C230.833069,115.341690 233.669830,116.481308 236.709045,117.829330 
	C229.334564,118.919624 221.771698,119.961250 214.175949,120.628761 
	C208.876236,121.094490 205.198837,123.402809 202.582581,128.210770 
	C201.584625,127.745995 201.286697,127.469612 200.988754,127.193222 
	C202.348251,121.076958 206.511124,118.311943 212.401398,117.375023 
	C217.283585,116.598442 222.122726,115.551163 227.488617,114.412949 
z"/>
<path fill="#576684" opacity="1.000000" stroke="none" 
	d="
M373.378448,118.135864 
	C372.993591,117.882355 373.008362,117.716209 373.042175,117.301071 
	C376.484497,115.796371 379.907745,114.540672 383.665771,113.186394 
	C384.617523,113.971756 385.106354,115.480873 385.872375,115.637863 
	C390.730042,116.633476 395.711945,117.063431 400.529846,118.200981 
	C405.280548,119.322662 407.309814,123.110390 408.894836,127.818558 
	C407.668915,127.753960 406.951202,127.900101 406.814850,127.682281 
	C402.459137,120.725052 395.121338,120.388405 388.179474,119.415001 
	C383.416962,118.747200 378.581146,118.602013 373.378448,118.135864 
z"/>
<path fill="#AF4B56" opacity="1.000000" stroke="none" 
	d="
M401.328033,187.140472 
	C400.973114,186.523361 400.942261,186.105682 400.957367,185.376480 
	C413.133209,185.890305 424.966736,187.719391 435.649780,195.052841 
	C424.006531,192.411377 412.829315,189.875641 401.328033,187.140472 
z"/>
<path fill="#422C50" opacity="1.000000" stroke="none" 
	d="
M432.184143,197.854935 
	C436.857819,199.618683 441.171265,201.236084 445.484680,202.853470 
	C445.663757,202.396942 445.842834,201.940399 446.021912,201.483856 
	C447.194855,204.077133 448.367828,206.670425 449.938965,210.143997 
	C439.025177,204.888763 428.727631,199.930283 418.430054,194.971786 
	C418.483612,194.643448 418.537140,194.315125 418.590668,193.986786 
	C423.001740,195.227386 427.412842,196.467987 432.184143,197.854935 
z"/>
<path fill="#12090D" opacity="1.000000" stroke="none" 
	d="
M155.987976,211.989395 
	C155.483795,201.468506 164.625336,200.055069 171.807571,196.035095 
	C174.707062,195.603485 176.829391,195.194672 178.951736,194.785843 
	C179.215759,195.282806 179.479782,195.779755 179.565811,196.694305 
	C174.373779,199.614365 169.306427,202.017380 164.369797,204.664169 
	C162.137817,205.860855 162.249207,206.098801 163.038849,208.233246 
	C160.939423,209.481003 158.839996,210.728760 156.370178,211.988235 
	C155.999802,211.999939 155.987976,211.989395 155.987976,211.989395 
z"/>
<path fill="#AF4B56" opacity="1.000000" stroke="none" 
	d="
M179.244934,194.565735 
	C176.829391,195.194672 174.707062,195.603485 172.166885,196.029663 
	C180.953140,192.595093 190.157227,189.143173 199.685486,185.760834 
	C200.517670,186.333542 201.025696,186.836639 201.733612,187.524017 
	C194.468399,189.920715 187.003281,192.133179 179.244934,194.565735 
z"/>
<path fill="#422C50" opacity="1.000000" stroke="none" 
	d="
M155.080475,217.079651 
	C159.580933,214.649582 163.987930,212.019257 168.614609,209.859573 
	C171.713364,208.413086 175.123962,207.634644 178.395020,206.557266 
	C178.602280,207.016159 178.809540,207.475067 179.016800,207.933975 
	C170.664078,212.164276 162.311340,216.394592 153.234406,220.991684 
	C154.050812,219.445312 154.529846,218.537979 155.023270,217.322571 
	C155.037674,217.014496 155.080475,217.079651 155.080475,217.079651 
z"/>
<path fill="#4C2856" opacity="1.000000" stroke="none" 
	d="
M163.387085,208.125290 
	C162.249207,206.098801 162.137817,205.860855 164.369797,204.664169 
	C169.306427,202.017380 174.373779,199.614365 179.712494,196.934616 
	C182.902359,196.352737 185.767548,195.948151 189.395721,195.435822 
	C180.332138,199.879791 172.033737,203.948563 163.387085,208.125290 
z"/>
<path fill="#422C50" opacity="1.000000" stroke="none" 
	d="
M441.301758,209.655701 
	C446.126190,212.622635 450.608887,215.434998 455.091553,218.247360 
	C454.758545,218.802032 454.425537,219.356705 454.092499,219.911377 
	C446.404694,215.907700 438.716888,211.904022 431.029053,207.900345 
	C431.158142,207.494873 431.287201,207.089417 431.416290,206.683945 
	C434.597504,207.623001 437.778748,208.562042 441.301758,209.655701 
z"/>
<path fill="#1C1021" opacity="1.000000" stroke="none" 
	d="
M280.997925,217.000671 
	C284.920227,220.131409 288.842529,223.262161 292.881134,226.711044 
	C289.553009,225.445526 286.108612,223.861847 282.328827,222.176285 
	C278.352356,219.984207 274.711243,217.894012 270.907715,215.506348 
	C273.446564,215.858063 276.147827,216.507294 279.394104,217.020630 
	C280.292053,216.923401 280.644989,216.962036 280.997925,217.000671 
z"/>
<path fill="#56597C" opacity="1.000000" stroke="none" 
	d="
M202.570892,129.267731 
	C199.725296,133.937790 196.879700,138.607849 193.455902,143.194290 
	C192.629440,142.901901 192.381180,142.693130 192.132935,142.484375 
	C194.825806,137.647125 197.518692,132.809891 200.758057,128.053833 
	C201.726654,128.512604 202.148773,128.890167 202.570892,129.267731 
z"/>
<path fill="#56597C" opacity="1.000000" stroke="none" 
	d="
M410.190826,128.706451 
	C412.878204,133.362152 415.243835,137.700531 417.609467,142.038910 
	C417.174255,142.279251 416.739044,142.519592 416.303833,142.759933 
	C411.920441,139.478928 410.056824,134.396378 407.813171,129.612885 
	C407.779907,129.541992 409.152557,128.811691 410.190826,128.706451 
z"/>
<path fill="#311B38" opacity="1.000000" stroke="none" 
	d="
M444.530945,186.441971 
	C445.471252,188.628708 446.237152,190.495743 447.003082,192.362778 
	C446.593445,192.556442 446.183807,192.750122 445.774139,192.943787 
	C442.971436,188.125153 440.168732,183.306519 437.366028,178.487885 
	C437.953339,178.122391 438.540649,177.756897 439.127960,177.391403 
	C440.870850,180.301697 442.613708,183.211975 444.530945,186.441971 
z"/>
<path fill="#311B38" opacity="1.000000" stroke="none" 
	d="
M432.988892,218.013916 
	C431.144135,217.045914 429.656433,216.189178 428.168762,215.332458 
	C428.448303,214.779526 428.727844,214.226593 429.007355,213.673660 
	C433.377411,215.361450 437.747467,217.049255 442.117493,218.737045 
	C441.860992,219.434433 441.604492,220.131821 441.347961,220.829224 
	C438.680634,219.927887 436.013275,219.026550 432.988892,218.013916 
z"/>
<path fill="#422C50" opacity="1.000000" stroke="none" 
	d="
M428.499084,159.931000 
	C430.966522,164.020294 433.433960,168.109589 435.901398,172.198883 
	C435.222015,172.609161 434.542633,173.019424 433.863281,173.429703 
	C431.456116,169.313354 429.048981,165.197006 427.068237,160.624512 
	C427.829498,160.089249 428.164276,160.010132 428.499084,159.931000 
z"/>
<path fill="#422C50" opacity="1.000000" stroke="none" 
	d="
M183.525864,212.916473 
	C184.254044,213.261200 184.593887,213.627914 185.198364,214.264801 
	C180.684357,216.146164 175.905762,217.757339 171.127151,219.368515 
	C170.896362,218.723236 170.665558,218.077957 170.434753,217.432678 
	C174.669006,215.934601 178.903275,214.436523 183.525864,212.916473 
z"/>
<path fill="#1C1021" opacity="1.000000" stroke="none" 
	d="
M170.062119,183.080780 
	C167.350388,187.574966 164.638672,192.069168 161.926941,196.563354 
	C161.365524,196.223846 160.804123,195.884354 160.242706,195.544846 
	C162.867264,191.125076 165.491821,186.705307 168.593140,182.280151 
	C169.400650,182.543442 169.731384,182.812119 170.062119,183.080780 
z"/>
<path fill="#311B38" opacity="1.000000" stroke="none" 
	d="
M281.192261,216.726715 
	C280.644989,216.962036 280.292053,216.923401 279.681213,216.844757 
	C276.016113,214.560699 272.608856,212.316650 269.201630,210.072601 
	C269.482300,209.539032 269.762970,209.005463 270.043671,208.471878 
	C273.991608,210.648727 277.939575,212.825562 282.101654,215.239075 
	C282.006042,215.801422 281.696320,216.127090 281.192261,216.726715 
z"/>
<path fill="#484865" opacity="1.000000" stroke="none" 
	d="
M183.279984,157.537094 
	C185.197540,154.010590 187.115112,150.484085 189.543777,147.016418 
	C190.405365,147.405991 190.755844,147.736694 191.106339,148.067398 
	C189.059540,151.425629 187.012741,154.783859 184.442993,158.105988 
	C183.706680,157.892303 183.493332,157.714691 183.279984,157.537094 
z"/>
<path fill="#484865" opacity="1.000000" stroke="none" 
	d="
M419.607300,144.911316 
	C421.361420,147.836243 423.115509,150.761185 424.540497,154.307846 
	C423.960876,155.117264 423.710388,155.304947 423.459900,155.492645 
	C421.459839,152.343826 419.459778,149.195007 417.957642,145.592361 
	C418.839508,145.062790 419.223389,144.987045 419.607300,144.911316 
z"/>
<path fill="#311B38" opacity="1.000000" stroke="none" 
	d="
M170.267181,182.812836 
	C169.731384,182.812119 169.400650,182.543442 168.833130,182.056366 
	C170.428680,178.612732 172.261017,175.387527 174.585907,172.193619 
	C175.400406,172.505539 175.722351,172.786179 176.044312,173.066803 
	C174.186966,176.226166 172.329620,179.385529 170.267181,182.812836 
z"/>
<path fill="#1C1021" opacity="1.000000" stroke="none" 
	d="
M316.787567,225.910889 
	C319.903534,223.632126 323.019501,221.353363 326.443542,218.949738 
	C327.307251,219.163284 327.862854,219.501678 328.730530,219.939178 
	C328.316528,220.775330 327.590424,221.512360 326.596863,222.429901 
	C323.772552,224.000946 321.215668,225.391510 318.146393,226.781189 
	C317.351837,226.490509 317.069702,226.200699 316.787567,225.910889 
z"/>
<path fill="#484865" opacity="1.000000" stroke="none" 
	d="
M404.014648,86.628242 
	C402.337158,86.534782 400.664337,86.080109 398.991547,85.625427 
	C399.007141,85.020813 399.022766,84.416199 399.038361,83.811584 
	C402.115875,83.711052 405.193359,83.610519 408.614868,83.678833 
	C407.312408,84.654137 405.665863,85.460579 404.014648,86.628242 
z"/>
<path fill="#5D2F66" opacity="1.000000" stroke="none" 
	d="
M349.827972,155.884338 
	C347.090637,156.862793 344.263672,157.554413 341.436737,158.246048 
	C341.267029,157.607040 341.097290,156.968048 340.927582,156.329056 
	C343.387665,155.568710 345.847717,154.808350 348.632446,154.018677 
	C349.217499,154.525391 349.477936,155.061447 349.827972,155.884338 
z"/>
<path fill="#311B38" opacity="1.000000" stroke="none" 
	d="
M166.223648,221.301971 
	C163.355865,222.788742 160.488068,224.275513 157.620270,225.762299 
	C157.301056,225.201965 156.981827,224.641632 156.662613,224.081299 
	C159.251160,222.810898 161.839722,221.540497 164.956909,220.409729 
	C165.731598,220.800232 165.977631,221.051086 166.223648,221.301971 
z"/>
<path fill="#422C50" opacity="1.000000" stroke="none" 
	d="
M183.171310,161.205872 
	C181.779572,163.529129 180.387833,165.852371 178.480255,168.115173 
	C177.794357,167.901810 177.624268,167.748886 177.454163,167.595947 
	C178.677841,165.125137 179.901535,162.654343 181.632599,160.234406 
	C182.483780,160.592133 182.827545,160.899002 183.171310,161.205872 
z"/>
<path fill="#1C1021" opacity="1.000000" stroke="none" 
	d="
M202.895386,84.588318 
	C205.087616,84.328835 207.267914,84.328835 209.448212,84.328835 
	C209.480804,84.775520 209.513397,85.222214 209.545990,85.668900 
	C207.568817,85.952713 205.591660,86.236534 203.230087,86.462036 
	C202.858276,85.885078 202.870865,85.366440 202.895386,84.588318 
z"/>
<path fill="#5D2F66" opacity="1.000000" stroke="none" 
	d="
M263.343323,155.233032 
	C265.237976,155.282211 267.126251,155.680420 269.014526,156.078629 
	C268.935425,156.635330 268.856354,157.192017 268.777252,157.748718 
	C267.043915,157.603317 265.310608,157.457916 263.266998,157.116943 
	C263.083435,156.474930 263.210175,156.028503 263.343323,155.233032 
z"/>
<path fill="#422C50" opacity="1.000000" stroke="none" 
	d="
M229.590210,206.039337 
	C227.207718,206.292480 224.481979,206.394043 221.414001,206.341034 
	C223.796814,206.086914 226.521896,205.987350 229.590210,206.039337 
z"/>
<path fill="#1C1021" opacity="1.000000" stroke="none" 
	d="
M312.814667,167.207870 
	C312.873871,168.574539 312.695801,170.156906 312.213806,171.898865 
	C311.909851,172.058456 311.957611,172.006424 311.869629,171.796692 
	C311.502838,171.382828 311.224091,171.178726 310.945312,170.974609 
	C310.945312,170.974609 311.025665,170.947891 310.865662,170.913681 
	C310.335052,170.945251 309.964447,171.011017 309.593811,171.076813 
	C310.588348,169.859055 311.582886,168.641312 312.814667,167.207870 
z"/>
<path fill="#AF4B56" opacity="1.000000" stroke="none" 
	d="
M210.316803,187.270660 
	C212.441605,187.033371 214.918671,186.909500 217.723633,186.984039 
	C215.590698,187.249649 213.129898,187.316864 210.316803,187.270660 
z"/>
<path fill="#1C1021" opacity="1.000000" stroke="none" 
	d="
M319.063049,159.639801 
	C317.988403,158.009857 316.856018,155.977921 315.715332,153.579346 
	C316.180817,153.143631 316.654541,153.074585 317.484741,152.971924 
	C318.229248,155.038162 318.617279,157.137985 319.063049,159.639801 
z"/>
<path fill="#12090D" opacity="1.000000" stroke="none" 
	d="
M156.005264,212.005463 
	C155.735504,213.457031 155.460266,214.903091 155.132751,216.714386 
	C155.080475,217.079651 155.037674,217.014496 155.067535,217.051575 
	C150.101517,215.206161 152.750793,213.690659 155.660706,212.080688 
	C155.987976,211.989395 155.999802,211.999939 156.005264,212.005463 
z"/>
<path fill="#AF4B56" opacity="1.000000" stroke="none" 
	d="
M393.624023,184.239105 
	C392.008667,184.486847 390.088470,184.594925 387.753296,184.570221 
	C389.331940,184.324768 391.325562,184.212112 393.624023,184.239105 
z"/>
<path fill="#AF4B56" opacity="1.000000" stroke="none" 
	d="
M222.354675,184.280670 
	C220.716171,184.520050 218.776733,184.606552 216.464447,184.534622 
	C218.078979,184.293396 220.066376,184.210602 222.354675,184.280670 
z"/>
<path fill="#1C1021" opacity="1.000000" stroke="none" 
	d="
M315.975372,140.989044 
	C316.653595,140.143463 317.554535,139.538864 318.818359,138.925659 
	C318.883026,140.390411 318.584778,141.863785 318.113800,143.663330 
	C317.360077,143.069687 316.779114,142.149872 315.975372,140.989044 
z"/>
<path fill="#1C1021" opacity="1.000000" stroke="none" 
	d="
M315.021423,149.676300 
	C314.567261,150.006561 314.135498,150.010300 313.380035,150.018555 
	C313.217285,148.990341 313.378296,147.957626 313.539307,146.924911 
	C314.040833,147.733200 314.542358,148.541489 315.021423,149.676300 
z"/>
<path fill="#AF4B56" opacity="1.000000" stroke="none" 
	d="
M232.332062,185.357498 
	C230.955566,185.449158 229.309418,185.358597 227.309998,185.057648 
	C228.658630,184.956589 230.360519,185.065933 232.332062,185.357498 
z"/>
<path fill="#AF4B56" opacity="1.000000" stroke="none" 
	d="
M207.726044,184.762512 
	C206.423874,185.155640 204.817505,185.445694 202.795746,185.630859 
	C204.060852,185.237137 205.741364,184.948273 207.726044,184.762512 
z"/>
<path fill="#5E4373" opacity="1.000000" stroke="none" 
	d="
M269.514374,108.658707 
	C269.124420,107.554619 268.820648,106.094070 268.670074,104.358803 
	C269.082367,105.490135 269.341461,106.896194 269.514374,108.658707 
z"/>
<path fill="#AF4B56" opacity="1.000000" stroke="none" 
	d="
M381.730133,184.851593 
	C380.732452,185.210495 379.453644,185.469650 377.781555,185.629425 
	C378.741852,185.270645 380.095428,185.011246 381.730133,184.851593 
z"/>
<path fill="#AF4B56" opacity="1.000000" stroke="none" 
	d="
M242.339996,187.426025 
	C241.554459,187.489456 240.564926,187.366302 239.261444,187.026917 
	C240.010345,186.953629 241.073166,187.096542 242.339996,187.426025 
z"/>
<path fill="#AF4B56" opacity="1.000000" stroke="none" 
	d="
M226.268066,187.830719 
	C226.912735,187.692032 227.768524,187.707214 228.824799,187.907196 
	C228.176605,188.056198 227.327896,188.020386 226.268066,187.830719 
z"/>
<path fill="#AF4B56" opacity="1.000000" stroke="none" 
	d="
M237.371399,186.378235 
	C236.582687,186.447937 235.581528,186.338303 234.261597,186.011810 
	C235.014877,185.929611 236.086914,186.064255 237.371399,186.378235 
z"/>
<path fill="#AF4B56" opacity="1.000000" stroke="none" 
	d="
M381.223083,188.174423 
	C381.804169,187.860245 382.626709,187.638748 383.686462,187.545410 
	C383.103973,187.871414 382.284241,188.069260 381.223083,188.174423 
z"/>
<path fill="#AF4B56" opacity="1.000000" stroke="none" 
	d="
M231.601669,188.669495 
	C232.389450,188.589828 233.400696,188.676285 234.733444,188.981171 
	C233.978333,189.078278 232.901749,188.956940 231.601669,188.669495 
z"/>
<path fill="#AF4B56" opacity="1.000000" stroke="none" 
	d="
M375.221680,189.255737 
	C375.926910,188.894501 376.893707,188.608215 378.241394,188.406433 
	C377.575928,188.770859 376.529602,189.050766 375.221680,189.255737 
z"/>
<path fill="#5D2F66" opacity="1.000000" stroke="none" 
	d="
M256.036987,155.138184 
	C256.133453,155.625992 256.078400,155.973770 255.928802,156.842041 
	C255.394577,156.769714 254.954880,156.176910 254.515167,155.584106 
	C254.971939,155.388779 255.428696,155.193466 256.036987,155.138184 
z"/>
<path fill="#484865" opacity="1.000000" stroke="none" 
	d="
M431.978607,65.413696 
	C432.352600,65.225182 432.726624,65.036667 433.100616,64.848160 
	C432.942261,65.499817 432.783936,66.151466 432.405762,66.898422 
	C432.185974,66.993729 431.812317,67.082146 431.765015,66.659592 
	C431.804657,65.962585 431.891632,65.688141 431.978607,65.413696 
z"/>
<path fill="#484865" opacity="1.000000" stroke="none" 
	d="
M425.371094,158.589081 
	C424.807068,157.745346 424.243042,156.901611 423.569458,155.775269 
	C423.710388,155.304947 423.960876,155.117264 424.610474,154.673065 
	C425.577942,155.237289 426.146332,156.058014 426.402283,157.450104 
	C425.850281,158.210678 425.610657,158.399887 425.371094,158.589081 
z"/>
<path fill="#AF4B56" opacity="1.000000" stroke="none" 
	d="
M365.791168,187.877563 
	C365.386719,188.200089 364.762146,188.449875 363.796692,188.656647 
	C364.160889,188.344025 364.865967,188.074417 365.791168,187.877563 
z"/>
<path fill="#AF4B56" opacity="1.000000" stroke="none" 
	d="
M246.366776,188.456894 
	C245.860931,188.541962 245.199448,188.452423 244.263306,188.161011 
	C244.729477,188.066864 245.470306,188.174576 246.366776,188.456894 
z"/>
<path fill="#AF4B56" opacity="1.000000" stroke="none" 
	d="
M369.782715,186.925323 
	C369.372009,187.238144 368.745483,187.468414 367.781860,187.647430 
	C368.152130,187.345062 368.859497,187.093933 369.782715,186.925323 
z"/>
<path fill="#AF4B56" opacity="1.000000" stroke="none" 
	d="
M374.785767,185.905243 
	C374.365936,186.214722 373.728394,186.440842 372.750183,186.607468 
	C373.129028,186.305939 373.848572,186.063904 374.785767,185.905243 
z"/>
<path fill="#AF4B56" opacity="1.000000" stroke="none" 
	d="
M236.557480,189.664948 
	C237.073181,189.571564 237.762115,189.644867 238.741943,189.919128 
	C238.265457,190.023926 237.498077,189.927795 236.557480,189.664948 
z"/>
<path fill="#AF4B56" opacity="1.000000" stroke="none" 
	d="
M253.268982,190.477722 
	C252.733673,190.527344 252.001007,190.363968 251.064606,189.994324 
	C251.597794,189.946915 252.334717,190.105820 253.268982,190.477722 
z"/>
<path fill="#AF4B56" opacity="1.000000" stroke="none" 
	d="
M240.630127,190.657364 
	C241.171005,190.582413 241.937408,190.697845 242.921173,191.020035 
	C242.377579,191.100449 241.616623,190.974106 240.630127,190.657364 
z"/>
<path fill="#AF4B56" opacity="1.000000" stroke="none" 
	d="
M371.202972,190.172485 
	C371.626648,189.859238 372.274445,189.620911 373.270996,189.436539 
	C372.888855,189.742798 372.157990,189.995117 371.202972,190.172485 
z"/>
<path fill="#1C1021" opacity="1.000000" stroke="none" 
	d="
M195.011078,86.319832 
	C194.867828,86.579941 194.635620,86.665428 194.037537,86.814407 
	C194.088470,86.633682 194.505295,86.389450 195.011078,86.319832 
z"/>
<path fill="#AF4B56" opacity="1.000000" stroke="none" 
	d="
M355.847839,190.769608 
	C355.470337,191.137100 354.809692,191.471878 353.864075,191.769653 
	C354.240936,191.400726 354.902832,191.068802 355.847839,190.769608 
z"/>
<path fill="#615280" opacity="1.000000" stroke="none" 
	d="
M415.341125,88.281143 
	C415.118744,88.124641 415.090912,87.899803 415.032227,87.336533 
	C415.351471,87.041046 415.701569,87.083984 416.051666,87.126915 
	C415.879669,87.488876 415.707703,87.850830 415.341125,88.281143 
z"/>
<path fill="#AF4B56" opacity="1.000000" stroke="none" 
	d="
M367.159546,191.247070 
	C367.580841,190.905685 368.291840,190.609909 369.295837,190.380035 
	C368.875671,190.728195 368.162445,191.010437 367.159546,191.247070 
z"/>
<path fill="#AF4B56" opacity="1.000000" stroke="none" 
	d="
M247.623398,192.665588 
	C248.169083,192.596375 248.937210,192.723434 249.920685,193.061386 
	C249.372620,193.135452 248.609238,192.998642 247.623398,192.665588 
z"/>
<path fill="#1C1021" opacity="1.000000" stroke="none" 
	d="
M196.162125,91.143936 
	C196.655212,91.385483 197.209244,91.924072 197.840973,92.748184 
	C197.353485,92.502792 196.788269,91.971893 196.162125,91.143936 
z"/>
<path fill="#422C50" opacity="1.000000" stroke="none" 
	d="
M437.064606,174.962708 
	C437.086029,174.989563 437.043182,174.935852 437.064606,174.962708 
z"/>
<path fill="#484865" opacity="1.000000" stroke="none" 
	d="
M412.149139,83.466156 
	C412.449646,83.161949 413.029907,82.904701 413.788635,82.759598 
	C413.454346,83.085533 412.941620,83.299324 412.149139,83.466156 
z"/>
<path fill="#484865" opacity="1.000000" stroke="none" 
	d="
M416.173798,82.496811 
	C416.574371,82.114563 417.271820,81.764351 418.275208,81.462463 
	C417.877686,81.850151 417.174164,82.189499 416.173798,82.496811 
z"/>
<path fill="#604B7A" opacity="1.000000" stroke="none" 
	d="
M342.522461,98.524475 
	C342.548920,99.082352 342.333374,99.834015 341.907135,100.792740 
	C341.891113,100.239288 342.085785,99.478775 342.522461,98.524475 
z"/>
<path fill="#625E88" opacity="1.000000" stroke="none" 
	d="
M380.476624,63.447811 
	C380.475037,64.032616 380.225494,64.817818 379.734497,65.804092 
	C379.738190,65.219513 379.983429,64.433853 380.476624,63.447811 
z"/>
<path fill="#5D2F66" opacity="1.000000" stroke="none" 
	d="
M354.366058,157.216553 
	C354.103790,156.901978 354.055634,156.453735 353.989105,155.668549 
	C354.173889,155.915375 354.377045,156.499130 354.366058,157.216553 
z"/>
<path fill="#605C85" opacity="1.000000" stroke="none" 
	d="
M225.878387,56.729691 
	C225.356918,56.528137 224.768845,56.041630 224.096664,55.270077 
	C224.612305,55.471603 225.212051,55.958176 225.878387,56.729691 
z"/>
<path fill="#56597C" opacity="1.000000" stroke="none" 
	d="
M419.433990,144.540283 
	C419.223389,144.987045 418.839508,145.062790 417.873871,145.233307 
	C417.230621,144.490967 417.169098,143.653824 417.107605,142.816696 
	C417.825287,143.267532 418.542999,143.718384 419.433990,144.540283 
z"/>
<path fill="#484865" opacity="1.000000" stroke="none" 
	d="
M428.368195,159.659409 
	C428.164276,160.010132 427.829498,160.089249 426.987122,160.274048 
	C426.172485,159.948273 425.865387,159.516815 425.464661,158.837219 
	C425.610657,158.399887 425.850281,158.210678 426.468781,157.757294 
	C427.310913,158.124680 427.774109,158.756241 428.368195,159.659409 
z"/>
<path fill="#56597C" opacity="1.000000" stroke="none" 
	d="
M191.289932,147.841934 
	C190.755844,147.736694 190.405365,147.405991 189.805786,146.811111 
	C189.715714,146.241150 189.874725,145.935333 190.571701,145.780151 
	C191.346191,146.127594 191.582748,146.324432 191.819305,146.521255 
	C191.704056,146.886322 191.588791,147.251389 191.289932,147.841934 
z"/>
<path fill="#422C50" opacity="1.000000" stroke="none" 
	d="
M176.169052,172.800903 
	C175.722351,172.786179 175.400406,172.505539 174.848724,171.998871 
	C174.808441,171.478943 174.997864,171.185043 175.616852,170.938492 
	C176.208847,171.122742 176.371262,171.259659 176.533691,171.396591 
	C176.453720,171.776062 176.373764,172.155533 176.169052,172.800903 
z"/>
<path fill="#422C50" opacity="1.000000" stroke="none" 
	d="
M166.319870,221.092911 
	C165.977631,221.051086 165.731598,220.800232 165.311737,220.354218 
	C165.563980,220.400650 165.990036,220.642258 166.319870,221.092911 
z"/>
<path fill="#625E88" opacity="1.000000" stroke="none" 
	d="
M431.615173,65.512192 
	C431.891632,65.688141 431.804657,65.962585 431.573486,66.646149 
	C430.972900,67.000725 430.516510,66.946175 429.712830,66.844986 
	C429.994263,66.402458 430.623016,66.006569 431.615173,65.512192 
z"/>
<path fill="#311B38" opacity="1.000000" stroke="none" 
	d="
M443.486389,221.496216 
	C443.502136,221.496368 443.470673,221.496078 443.486389,221.496216 
z"/>
<path fill="#576684" opacity="1.000000" stroke="none" 
	d="
M202.663361,129.191071 
	C202.148773,128.890167 201.726654,128.512604 201.016327,127.822411 
	C200.728134,127.509796 200.782242,127.287331 200.885498,127.240280 
	C201.286697,127.469612 201.584625,127.745995 202.319992,128.448273 
	C202.757416,128.874176 202.755844,129.114410 202.663361,129.191071 
z"/>
<path fill="#422C50" opacity="1.000000" stroke="none" 
	d="
M457.493134,220.508133 
	C457.493011,220.496078 457.493256,220.520187 457.493134,220.508133 
z"/>
<path fill="#56597C" opacity="1.000000" stroke="none" 
	d="
M193.228149,143.448181 
	C192.983597,143.569122 192.388580,143.352570 191.963257,142.810211 
	C192.381180,142.693130 192.629440,142.901901 193.228149,143.448181 
z"/>
<path fill="#56597C" opacity="1.000000" stroke="none" 
	d="
M190.772720,145.615250 
	C191.012802,145.494507 191.589828,145.689301 191.993073,146.202667 
	C191.582748,146.324432 191.346191,146.127594 190.772720,145.615250 
z"/>
<path fill="#5D2F66" opacity="1.000000" stroke="none" 
	d="
M321.318451,185.663849 
	C321.241272,185.559479 321.393494,185.207657 321.762878,184.876953 
	C321.836029,185.070831 321.691956,185.243607 321.318451,185.663849 
z"/>
<path fill="#422C50" opacity="1.000000" stroke="none" 
	d="
M168.432220,219.415100 
	C168.533051,219.346542 168.581985,219.607468 168.581985,219.607468 
	C168.581985,219.607468 168.331375,219.483643 168.432220,219.415100 
z"/>
<path fill="#484865" opacity="1.000000" stroke="none" 
	d="
M184.219360,158.359329 
	C184.012589,158.457611 183.506485,158.266464 183.140182,157.806198 
	C183.493332,157.714691 183.706680,157.892303 184.219360,158.359329 
z"/>
<path fill="#484865" opacity="1.000000" stroke="none" 
	d="
M183.113098,160.794800 
	C182.827545,160.899002 182.483780,160.592133 181.898193,160.035980 
	C182.122543,159.985718 182.588715,160.184723 183.113098,160.794800 
z"/>
<path fill="#422C50" opacity="1.000000" stroke="none" 
	d="
M178.201965,168.302292 
	C178.024506,168.375061 177.609497,168.200272 177.324326,167.810715 
	C177.624268,167.748886 177.794357,167.901810 178.201965,168.302292 
z"/>
<path fill="#422C50" opacity="1.000000" stroke="none" 
	d="
M175.814941,170.766876 
	C175.979691,170.698227 176.375931,170.848557 176.652924,171.197723 
	C176.371262,171.259659 176.208847,171.122742 175.814941,170.766876 
z"/>
<path fill="#5D2F66" opacity="1.000000" stroke="none" 
	d="
M309.960571,171.123932 
	C309.964447,171.011017 310.335052,170.945251 310.879303,170.953766 
	C310.811066,171.075729 310.569183,171.123398 309.960571,171.123932 
z"/>
<path fill="#5D2F66" opacity="1.000000" stroke="none" 
	d="
M310.966858,171.278137 
	C311.224091,171.178726 311.502838,171.382828 311.891235,171.824524 
	C311.663330,171.901962 311.325867,171.741821 310.966858,171.278137 
z"/>
<path fill="#E1598A" opacity="1.000000" stroke="none" 
	d="
M358.748230,112.541039 
	C354.763702,118.347969 350.916107,123.825836 346.907684,129.611908 
	C345.099121,132.478745 343.451324,135.037369 341.146118,137.803314 
	C339.390381,138.012695 338.292084,138.014755 337.193787,138.016815 
	C339.506073,133.931046 341.818390,129.845291 344.275574,125.438011 
	C349.018860,119.013260 353.617249,112.910034 358.382751,106.486031 
	C362.736115,101.801071 366.922363,97.436882 371.672577,93.154160 
	C372.584076,93.608757 372.931580,93.981880 373.279114,94.355011 
	C368.481140,100.307327 363.683136,106.259651 358.748230,112.541039 
z"/>
<path fill="#CA5692" opacity="1.000000" stroke="none" 
	d="
M373.566101,94.196182 
	C372.931580,93.981880 372.584076,93.608757 371.951355,92.979805 
	C373.079468,91.029648 374.492798,89.335312 376.098083,87.361145 
	C381.890106,82.317116 387.490143,77.552925 393.338715,72.534195 
	C396.590424,70.259254 399.593628,68.238853 402.596802,66.218460 
	C402.840057,66.519005 403.083313,66.819557 403.326538,67.120102 
	C401.520447,68.811722 399.714355,70.503342 397.667786,72.450958 
	C391.362244,78.166550 385.297180,83.626144 379.055267,89.342239 
	C377.203308,91.078285 375.528198,92.557823 373.566101,94.196182 
z"/>
<path fill="#625E88" opacity="1.000000" stroke="none" 
	d="
M420.100769,67.947151 
	C419.863586,68.459274 419.493652,68.830299 419.123718,69.201324 
	C419.018005,69.088539 418.912323,68.975746 418.806641,68.862946 
	C419.193756,68.510643 419.580841,68.158348 420.100769,67.947151 
z"/>
<path fill="#625E88" opacity="1.000000" stroke="none" 
	d="
M407.473267,63.032616 
	C407.450653,63.011948 407.495880,63.053284 407.473267,63.032616 
z"/>
<path fill="#625E88" opacity="1.000000" stroke="none" 
	d="
M405.498016,66.505264 
	C405.492310,66.487488 405.503723,66.523033 405.498016,66.505264 
z"/>
<path fill="#CA5692" opacity="1.000000" stroke="none" 
	d="
M207.309143,68.140617 
	C204.915497,65.243950 207.197693,66.008232 208.240555,66.653160 
	C210.875015,68.282318 213.330490,70.200958 216.137695,72.133766 
	C221.157837,76.366470 225.897934,80.469017 230.954742,84.998444 
	C231.433136,85.659241 231.653824,85.802063 231.933487,85.853790 
	C231.933487,85.853790 232.318741,86.021622 232.520935,86.074722 
	C233.164719,86.799477 233.606308,87.471123 233.900146,88.672714 
	C233.428925,89.549194 233.105438,89.895737 232.781952,90.242279 
	C231.736984,89.501709 230.692032,88.761139 229.377777,87.835693 
	C221.941467,81.197227 214.774429,74.743629 207.309143,68.140617 
z"/>
<path fill="#010001" opacity="1.000000" stroke="none" 
	d="
M185.042877,67.143280 
	C185.162354,66.952446 185.397446,66.953590 185.985352,66.945602 
	C185.944946,67.069405 185.551712,67.202332 185.042877,67.143280 
z"/>
<path fill="#61688E" opacity="1.000000" stroke="none" 
	d="
M201.496628,48.505928 
	C201.490509,48.487488 201.502747,48.524372 201.496628,48.505928 
z"/>
<path fill="#E1598A" opacity="1.000000" stroke="none" 
	d="
M245.582550,99.860107 
	C251.075073,106.544815 256.289734,113.054344 261.760620,119.782867 
	C263.876434,123.127869 265.736023,126.253868 267.360626,129.747437 
	C266.346832,130.509186 265.568024,130.903381 264.789185,131.297562 
	C263.041748,128.970139 261.294312,126.642715 259.295776,124.083122 
	C254.247955,117.273239 249.451202,110.695511 244.371338,103.915588 
	C241.331543,100.048340 238.574860,96.383293 235.914490,92.364464 
	C239.108749,94.568764 242.206711,97.126846 245.582550,99.860107 
z"/>
<path fill="#E1598A" opacity="1.000000" stroke="none" 
	d="
M235.007889,91.298096 
	C235.341232,91.142342 235.672302,91.274635 235.995911,91.697624 
	C235.660828,91.854263 235.333221,91.720207 235.007889,91.298096 
z"/>
<path fill="#E1598A" opacity="1.000000" stroke="none" 
	d="
M234.008514,90.296448 
	C234.340088,90.142014 234.671341,90.275284 234.996399,90.699318 
	C234.662872,90.854767 234.335541,90.719460 234.008514,90.296448 
z"/>
<path fill="#E1598A" opacity="1.000000" stroke="none" 
	d="
M233.103836,90.272507 
	C233.105438,89.895737 233.428925,89.549194 234.008575,88.953461 
	C234.285385,88.932953 234.306046,89.161652 234.160080,89.691803 
	C233.804199,90.096420 233.614960,90.199577 233.103836,90.272507 
z"/>
<path fill="#EB5E83" opacity="1.000000" stroke="none" 
	d="
M264.818909,131.647461 
	C265.568024,130.903381 266.346832,130.509186 267.456360,130.073090 
	C270.056091,133.522293 272.325134,137.013382 274.819885,140.754059 
	C278.093628,147.199631 281.141602,153.395630 284.412079,159.838882 
	C286.448853,165.158356 288.263184,170.230560 290.124512,175.695160 
	C289.040497,176.077423 287.909485,176.067322 286.355957,176.059753 
	C283.650635,170.798599 281.367828,165.534897 278.886780,160.004822 
	C276.081818,154.290070 273.475128,148.841690 270.696625,143.122650 
	C268.632751,139.233780 266.740662,135.615585 264.818909,131.647461 
z"/>
<path fill="#E25C7F" opacity="1.000000" stroke="none" 
	d="
M336.969635,138.271301 
	C338.292084,138.014755 339.390381,138.012695 340.906158,138.015839 
	C340.547485,139.767075 339.771301,141.513107 338.906921,143.605408 
	C336.351501,148.953705 333.884247,153.955719 331.336609,159.332367 
	C328.265686,167.262939 325.275177,174.818878 322.099731,182.679321 
	C321.449371,180.768967 320.983887,178.554108 320.230499,176.191437 
	C321.310730,171.953262 322.678833,167.862900 324.112488,163.403381 
	C327.612030,156.240921 331.046021,149.447632 334.553284,142.326355 
	C335.332825,140.840851 336.039154,139.683319 336.969635,138.271301 
z"/>
<path fill="#635683" opacity="1.000000" stroke="none" 
	d="
M231.806534,85.710953 
	C231.653824,85.802063 231.433136,85.659241 231.192184,85.240936 
	C231.314453,85.213104 231.503326,85.383621 231.806534,85.710953 
z"/>
<path fill="#010001" opacity="1.000000" stroke="none" 
	d="
M248.908081,126.284073 
	C249.689911,126.411705 250.400497,126.882065 251.082153,127.698715 
	C250.314438,127.572266 249.575638,127.099541 248.908081,126.284073 
z"/>
<path fill="#010001" opacity="1.000000" stroke="none" 
	d="
M250.999725,128.213440 
	C251.398407,127.943146 251.845566,127.934372 252.620728,128.026657 
	C252.315216,128.243454 251.681717,128.359192 250.999725,128.213440 
z"/>
<path fill="#010001" opacity="1.000000" stroke="none" 
	d="
M356.765808,128.942932 
	C356.770294,128.748154 357.104828,128.462982 357.748718,128.061951 
	C357.737305,128.248245 357.416565,128.550415 356.765808,128.942932 
z"/>
<path fill="#625E88" opacity="1.000000" stroke="none" 
	d="
M202.602539,62.017052 
	C202.064362,62.187023 201.158218,62.353767 200.139191,62.267334 
	C200.762405,62.014042 201.498489,62.013935 202.602539,62.017052 
z"/>
<path fill="#625E88" opacity="1.000000" stroke="none" 
	d="
M204.488815,63.966824 
	C204.518555,63.956638 204.459076,63.977009 204.488815,63.966824 
z"/>
<path fill="#311B38" opacity="1.000000" stroke="none" 
	d="
M303.101318,235.322510 
	C305.406158,234.007065 307.832001,233.004883 310.621948,232.016434 
	C308.731110,233.948929 307.833740,238.790939 303.101318,235.322510 
z"/>
<path fill="#311B38" opacity="1.000000" stroke="none" 
	d="
M316.524048,226.098145 
	C317.069702,226.200699 317.351837,226.490509 317.864716,226.978256 
	C315.962494,228.740677 313.829529,230.305145 311.364624,231.932343 
	C312.775299,230.091843 314.517944,228.188614 316.524048,226.098145 
z"/>
<path fill="#311B38" opacity="1.000000" stroke="none" 
	d="
M296.028503,228.925079 
	C297.306549,229.529556 298.613068,230.527161 300.185120,231.776703 
	C298.986115,231.125168 297.521576,230.221695 296.028503,228.925079 
z"/>
<path fill="#1C1021" opacity="1.000000" stroke="none" 
	d="
M293.213593,227.286438 
	C293.636108,227.213821 294.296570,227.418457 295.247620,227.820053 
	C294.842651,227.865891 294.147095,227.714783 293.213593,227.286438 
z"/>
<path fill="#311B38" opacity="1.000000" stroke="none" 
	d="
M302.109497,234.204163 
	C302.260010,234.166290 302.505432,234.376678 302.862091,234.821030 
	C302.700562,234.878662 302.444275,234.677811 302.109497,234.204163 
z"/>
<path fill="#311B38" opacity="1.000000" stroke="none" 
	d="
M301.086609,232.816772 
	C301.217163,232.852402 301.453522,233.179199 301.847992,233.761795 
	C301.734863,233.714371 301.463623,233.411133 301.086609,232.816772 
z"/>
</svg>